  0
SECTION
  2
BLOCKS
  0
ENDSEC
  0
SECTION
  2
ENTITIES
  0
LINE
  8
0
 10
-14.873
 11
-14.873
 20
16
 21
275.492
  0
LINE
  8
0
 10
-14.873
 11
0.127
 20
275.492
 21
275.492
  0
LINE
  8
0
 10
0.127
 11
0.127
 20
275.492
 21
16
  0
LINE
  8
0
 10
0.127
 11
-14.873
 20
16
 21
16
  0
LINE
  8
0
 10
0.254
 11
0.254
 20
-16.127
 21
-0.127
  0
LINE
  8
0
 10
0.254
 11
170.254
 20
-0.127
 21
-0.127
  0
LINE
  8
0
 10
170.254
 11
170.254
 20
-0.127
 21
-16.127
  0
LINE
  8
0
 10
170.254
 11
0.254
 20
-16.127
 21
-16.127
  0
LINE
  8
0
 10
0.254
 11
0.254
 20
0
 21
292
  0
LINE
  8
0
 10
0.254
 11
170.254
 20
292
 21
292
  0
LINE
  8
0
 10
170.254
 11
170.254
 20
292
 21
0
  0
LINE
  8
0
 10
170.254
 11
0.254
 20
0
 21
0
  0
LINE
  8
0
 10
0.254
 11
0.254
 20
292.127
 21
308.127
  0
LINE
  8
0
 10
0.254
 11
170.254
 20
308.127
 21
308.127
  0
LINE
  8
0
 10
170.254
 11
170.254
 20
308.127
 21
292.127
  0
LINE
  8
0
 10
170.254
 11
0.254
 20
292.127
 21
292.127
  0
LINE
  8
0
 10
21.254
 11
21.287
 20
25
 21
25.312
  0
LINE
  8
0
 10
21.287
 11
21.384
 20
25.312
 21
25.61
  0
LINE
  8
0
 10
21.384
 11
21.54
 20
25.61
 21
25.882
  0
LINE
  8
0
 10
21.54
 11
21.75
 20
25.882
 21
26.115
  0
LINE
  8
0
 10
21.75
 11
22.004
 20
26.115
 21
26.299
  0
LINE
  8
0
 10
22.004
 11
22.29
 20
26.299
 21
26.427
  0
LINE
  8
0
 10
22.29
 11
22.597
 20
26.427
 21
26.492
  0
LINE
  8
0
 10
22.597
 11
22.911
 20
26.492
 21
26.492
  0
LINE
  8
0
 10
22.911
 11
23.218
 20
26.492
 21
26.427
  0
LINE
  8
0
 10
23.218
 11
23.504
 20
26.427
 21
26.299
  0
LINE
  8
0
 10
23.504
 11
23.758
 20
26.299
 21
26.115
  0
LINE
  8
0
 10
23.758
 11
23.968
 20
26.115
 21
25.882
  0
LINE
  8
0
 10
23.968
 11
24.124
 20
25.882
 21
25.61
  0
LINE
  8
0
 10
24.124
 11
24.221
 20
25.61
 21
25.312
  0
LINE
  8
0
 10
24.221
 11
24.254
 20
25.312
 21
25
  0
LINE
  8
0
 10
24.254
 11
24.221
 20
25
 21
24.688
  0
LINE
  8
0
 10
24.221
 11
24.124
 20
24.688
 21
24.39
  0
LINE
  8
0
 10
24.124
 11
23.968
 20
24.39
 21
24.118
  0
LINE
  8
0
 10
23.968
 11
23.758
 20
24.118
 21
23.885
  0
LINE
  8
0
 10
23.758
 11
23.504
 20
23.885
 21
23.701
  0
LINE
  8
0
 10
23.504
 11
23.218
 20
23.701
 21
23.573
  0
LINE
  8
0
 10
23.218
 11
22.911
 20
23.573
 21
23.508
  0
LINE
  8
0
 10
22.911
 11
22.597
 20
23.508
 21
23.508
  0
LINE
  8
0
 10
22.597
 11
22.29
 20
23.508
 21
23.573
  0
LINE
  8
0
 10
22.29
 11
22.004
 20
23.573
 21
23.701
  0
LINE
  8
0
 10
22.004
 11
21.75
 20
23.701
 21
23.885
  0
LINE
  8
0
 10
21.75
 11
21.54
 20
23.885
 21
24.118
  0
LINE
  8
0
 10
21.54
 11
21.384
 20
24.118
 21
24.39
  0
LINE
  8
0
 10
21.384
 11
21.287
 20
24.39
 21
24.688
  0
LINE
  8
0
 10
21.287
 11
21.254
 20
24.688
 21
25
  0
LINE
  8
0
 10
21.254
 11
21.287
 20
146
 21
146.312
  0
LINE
  8
0
 10
21.287
 11
21.384
 20
146.312
 21
146.61
  0
LINE
  8
0
 10
21.384
 11
21.54
 20
146.61
 21
146.882
  0
LINE
  8
0
 10
21.54
 11
21.75
 20
146.882
 21
147.115
  0
LINE
  8
0
 10
21.75
 11
22.004
 20
147.115
 21
147.299
  0
LINE
  8
0
 10
22.004
 11
22.29
 20
147.299
 21
147.427
  0
LINE
  8
0
 10
22.29
 11
22.597
 20
147.427
 21
147.492
  0
LINE
  8
0
 10
22.597
 11
22.911
 20
147.492
 21
147.492
  0
LINE
  8
0
 10
22.911
 11
23.218
 20
147.492
 21
147.427
  0
LINE
  8
0
 10
23.218
 11
23.504
 20
147.427
 21
147.299
  0
LINE
  8
0
 10
23.504
 11
23.758
 20
147.299
 21
147.115
  0
LINE
  8
0
 10
23.758
 11
23.968
 20
147.115
 21
146.882
  0
LINE
  8
0
 10
23.968
 11
24.124
 20
146.882
 21
146.61
  0
LINE
  8
0
 10
24.124
 11
24.221
 20
146.61
 21
146.312
  0
LINE
  8
0
 10
24.221
 11
24.254
 20
146.312
 21
146
  0
LINE
  8
0
 10
24.254
 11
24.221
 20
146
 21
145.688
  0
LINE
  8
0
 10
24.221
 11
24.124
 20
145.688
 21
145.39
  0
LINE
  8
0
 10
24.124
 11
23.968
 20
145.39
 21
145.118
  0
LINE
  8
0
 10
23.968
 11
23.758
 20
145.118
 21
144.885
  0
LINE
  8
0
 10
23.758
 11
23.504
 20
144.885
 21
144.701
  0
LINE
  8
0
 10
23.504
 11
23.218
 20
144.701
 21
144.573
  0
LINE
  8
0
 10
23.218
 11
22.911
 20
144.573
 21
144.508
  0
LINE
  8
0
 10
22.911
 11
22.597
 20
144.508
 21
144.508
  0
LINE
  8
0
 10
22.597
 11
22.29
 20
144.508
 21
144.573
  0
LINE
  8
0
 10
22.29
 11
22.004
 20
144.573
 21
144.701
  0
LINE
  8
0
 10
22.004
 11
21.75
 20
144.701
 21
144.885
  0
LINE
  8
0
 10
21.75
 11
21.54
 20
144.885
 21
145.118
  0
LINE
  8
0
 10
21.54
 11
21.384
 20
145.118
 21
145.39
  0
LINE
  8
0
 10
21.384
 11
21.287
 20
145.39
 21
145.688
  0
LINE
  8
0
 10
21.287
 11
21.254
 20
145.688
 21
146
  0
LINE
  8
0
 10
21.254
 11
21.287
 20
267
 21
267.312
  0
LINE
  8
0
 10
21.287
 11
21.384
 20
267.312
 21
267.61
  0
LINE
  8
0
 10
21.384
 11
21.54
 20
267.61
 21
267.882
  0
LINE
  8
0
 10
21.54
 11
21.75
 20
267.882
 21
268.115
  0
LINE
  8
0
 10
21.75
 11
22.004
 20
268.115
 21
268.299
  0
LINE
  8
0
 10
22.004
 11
22.29
 20
268.299
 21
268.427
  0
LINE
  8
0
 10
22.29
 11
22.597
 20
268.427
 21
268.492
  0
LINE
  8
0
 10
22.597
 11
22.911
 20
268.492
 21
268.492
  0
LINE
  8
0
 10
22.911
 11
23.218
 20
268.492
 21
268.427
  0
LINE
  8
0
 10
23.218
 11
23.504
 20
268.427
 21
268.299
  0
LINE
  8
0
 10
23.504
 11
23.758
 20
268.299
 21
268.115
  0
LINE
  8
0
 10
23.758
 11
23.968
 20
268.115
 21
267.882
  0
LINE
  8
0
 10
23.968
 11
24.124
 20
267.882
 21
267.61
  0
LINE
  8
0
 10
24.124
 11
24.221
 20
267.61
 21
267.312
  0
LINE
  8
0
 10
24.221
 11
24.254
 20
267.312
 21
267
  0
LINE
  8
0
 10
24.254
 11
24.221
 20
267
 21
266.688
  0
LINE
  8
0
 10
24.221
 11
24.124
 20
266.688
 21
266.39
  0
LINE
  8
0
 10
24.124
 11
23.968
 20
266.39
 21
266.118
  0
LINE
  8
0
 10
23.968
 11
23.758
 20
266.118
 21
265.885
  0
LINE
  8
0
 10
23.758
 11
23.504
 20
265.885
 21
265.701
  0
LINE
  8
0
 10
23.504
 11
23.218
 20
265.701
 21
265.573
  0
LINE
  8
0
 10
23.218
 11
22.911
 20
265.573
 21
265.508
  0
LINE
  8
0
 10
22.911
 11
22.597
 20
265.508
 21
265.508
  0
LINE
  8
0
 10
22.597
 11
22.29
 20
265.508
 21
265.573
  0
LINE
  8
0
 10
22.29
 11
22.004
 20
265.573
 21
265.701
  0
LINE
  8
0
 10
22.004
 11
21.75
 20
265.701
 21
265.885
  0
LINE
  8
0
 10
21.75
 11
21.54
 20
265.885
 21
266.118
  0
LINE
  8
0
 10
21.54
 11
21.384
 20
266.118
 21
266.39
  0
LINE
  8
0
 10
21.384
 11
21.287
 20
266.39
 21
266.688
  0
LINE
  8
0
 10
21.287
 11
21.254
 20
266.688
 21
267
  0
LINE
  8
0
 10
30.254
 11
30.254
 20
16
 21
276
  0
LINE
  8
0
 10
30.254
 11
55.397
 20
276
 21
276
  0
LINE
  8
0
 10
55.397
 11
55.397
 20
276
 21
16
  0
LINE
  8
0
 10
55.397
 11
30.254
 20
16
 21
16
  0
LINE
  8
0
 10
30.381
 11
30.381
 20
29.016
 21
262.984
  0
LINE
  8
0
 10
30.381
 11
42.381
 20
262.984
 21
262.984
  0
LINE
  8
0
 10
42.381
 11
42.381
 20
262.984
 21
29.016
  0
LINE
  8
0
 10
42.381
 11
30.381
 20
29.016
 21
29.016
  0
LINE
  8
0
 10
31.27
 11
31.27
 20
16.127
 21
28.127
  0
LINE
  8
0
 10
31.27
 11
54.381
 20
28.127
 21
28.127
  0
LINE
  8
0
 10
54.381
 11
54.381
 20
28.127
 21
16.127
  0
LINE
  8
0
 10
54.381
 11
31.27
 20
16.127
 21
16.127
  0
LINE
  8
0
 10
31.27
 11
31.27
 20
263.873
 21
275.873
  0
LINE
  8
0
 10
31.27
 11
54.381
 20
275.873
 21
275.873
  0
LINE
  8
0
 10
54.381
 11
54.381
 20
275.873
 21
263.873
  0
LINE
  8
0
 10
54.381
 11
31.27
 20
263.873
 21
263.873
  0
LINE
  8
0
 10
43.27
 11
43.27
 20
29.016
 21
262.984
  0
LINE
  8
0
 10
43.27
 11
55.27
 20
262.984
 21
262.984
  0
LINE
  8
0
 10
55.27
 11
55.27
 20
262.984
 21
29.016
  0
LINE
  8
0
 10
55.27
 11
43.27
 20
29.016
 21
29.016
  0
LINE
  8
0
 10
61.397
 11
61.43
 20
25
 21
25.312
  0
LINE
  8
0
 10
61.43
 11
61.527
 20
25.312
 21
25.61
  0
LINE
  8
0
 10
61.527
 11
61.683
 20
25.61
 21
25.882
  0
LINE
  8
0
 10
61.683
 11
61.893
 20
25.882
 21
26.115
  0
LINE
  8
0
 10
61.893
 11
62.147
 20
26.115
 21
26.299
  0
LINE
  8
0
 10
62.147
 11
62.433
 20
26.299
 21
26.427
  0
LINE
  8
0
 10
62.433
 11
62.74
 20
26.427
 21
26.492
  0
LINE
  8
0
 10
62.74
 11
63.054
 20
26.492
 21
26.492
  0
LINE
  8
0
 10
63.054
 11
63.361
 20
26.492
 21
26.427
  0
LINE
  8
0
 10
63.361
 11
63.647
 20
26.427
 21
26.299
  0
LINE
  8
0
 10
63.647
 11
63.901
 20
26.299
 21
26.115
  0
LINE
  8
0
 10
63.901
 11
64.111
 20
26.115
 21
25.882
  0
LINE
  8
0
 10
64.111
 11
64.267
 20
25.882
 21
25.61
  0
LINE
  8
0
 10
64.267
 11
64.364
 20
25.61
 21
25.312
  0
LINE
  8
0
 10
64.364
 11
64.397
 20
25.312
 21
25
  0
LINE
  8
0
 10
64.397
 11
64.364
 20
25
 21
24.688
  0
LINE
  8
0
 10
64.364
 11
64.267
 20
24.688
 21
24.39
  0
LINE
  8
0
 10
64.267
 11
64.111
 20
24.39
 21
24.118
  0
LINE
  8
0
 10
64.111
 11
63.901
 20
24.118
 21
23.885
  0
LINE
  8
0
 10
63.901
 11
63.647
 20
23.885
 21
23.701
  0
LINE
  8
0
 10
63.647
 11
63.361
 20
23.701
 21
23.573
  0
LINE
  8
0
 10
63.361
 11
63.054
 20
23.573
 21
23.508
  0
LINE
  8
0
 10
63.054
 11
62.74
 20
23.508
 21
23.508
  0
LINE
  8
0
 10
62.74
 11
62.433
 20
23.508
 21
23.573
  0
LINE
  8
0
 10
62.433
 11
62.147
 20
23.573
 21
23.701
  0
LINE
  8
0
 10
62.147
 11
61.893
 20
23.701
 21
23.885
  0
LINE
  8
0
 10
61.893
 11
61.683
 20
23.885
 21
24.118
  0
LINE
  8
0
 10
61.683
 11
61.527
 20
24.118
 21
24.39
  0
LINE
  8
0
 10
61.527
 11
61.43
 20
24.39
 21
24.688
  0
LINE
  8
0
 10
61.43
 11
61.397
 20
24.688
 21
25
  0
LINE
  8
0
 10
61.397
 11
61.43
 20
146
 21
146.312
  0
LINE
  8
0
 10
61.43
 11
61.527
 20
146.312
 21
146.61
  0
LINE
  8
0
 10
61.527
 11
61.683
 20
146.61
 21
146.882
  0
LINE
  8
0
 10
61.683
 11
61.893
 20
146.882
 21
147.115
  0
LINE
  8
0
 10
61.893
 11
62.147
 20
147.115
 21
147.299
  0
LINE
  8
0
 10
62.147
 11
62.433
 20
147.299
 21
147.427
  0
LINE
  8
0
 10
62.433
 11
62.74
 20
147.427
 21
147.492
  0
LINE
  8
0
 10
62.74
 11
63.054
 20
147.492
 21
147.492
  0
LINE
  8
0
 10
63.054
 11
63.361
 20
147.492
 21
147.427
  0
LINE
  8
0
 10
63.361
 11
63.647
 20
147.427
 21
147.299
  0
LINE
  8
0
 10
63.647
 11
63.901
 20
147.299
 21
147.115
  0
LINE
  8
0
 10
63.901
 11
64.111
 20
147.115
 21
146.882
  0
LINE
  8
0
 10
64.111
 11
64.267
 20
146.882
 21
146.61
  0
LINE
  8
0
 10
64.267
 11
64.364
 20
146.61
 21
146.312
  0
LINE
  8
0
 10
64.364
 11
64.397
 20
146.312
 21
146
  0
LINE
  8
0
 10
64.397
 11
64.364
 20
146
 21
145.688
  0
LINE
  8
0
 10
64.364
 11
64.267
 20
145.688
 21
145.39
  0
LINE
  8
0
 10
64.267
 11
64.111
 20
145.39
 21
145.118
  0
LINE
  8
0
 10
64.111
 11
63.901
 20
145.118
 21
144.885
  0
LINE
  8
0
 10
63.901
 11
63.647
 20
144.885
 21
144.701
  0
LINE
  8
0
 10
63.647
 11
63.361
 20
144.701
 21
144.573
  0
LINE
  8
0
 10
63.361
 11
63.054
 20
144.573
 21
144.508
  0
LINE
  8
0
 10
63.054
 11
62.74
 20
144.508
 21
144.508
  0
LINE
  8
0
 10
62.74
 11
62.433
 20
144.508
 21
144.573
  0
LINE
  8
0
 10
62.433
 11
62.147
 20
144.573
 21
144.701
  0
LINE
  8
0
 10
62.147
 11
61.893
 20
144.701
 21
144.885
  0
LINE
  8
0
 10
61.893
 11
61.683
 20
144.885
 21
145.118
  0
LINE
  8
0
 10
61.683
 11
61.527
 20
145.118
 21
145.39
  0
LINE
  8
0
 10
61.527
 11
61.43
 20
145.39
 21
145.688
  0
LINE
  8
0
 10
61.43
 11
61.397
 20
145.688
 21
146
  0
LINE
  8
0
 10
61.397
 11
61.43
 20
267
 21
267.312
  0
LINE
  8
0
 10
61.43
 11
61.527
 20
267.312
 21
267.61
  0
LINE
  8
0
 10
61.527
 11
61.683
 20
267.61
 21
267.882
  0
LINE
  8
0
 10
61.683
 11
61.893
 20
267.882
 21
268.115
  0
LINE
  8
0
 10
61.893
 11
62.147
 20
268.115
 21
268.299
  0
LINE
  8
0
 10
62.147
 11
62.433
 20
268.299
 21
268.427
  0
LINE
  8
0
 10
62.433
 11
62.74
 20
268.427
 21
268.492
  0
LINE
  8
0
 10
62.74
 11
63.054
 20
268.492
 21
268.492
  0
LINE
  8
0
 10
63.054
 11
63.361
 20
268.492
 21
268.427
  0
LINE
  8
0
 10
63.361
 11
63.647
 20
268.427
 21
268.299
  0
LINE
  8
0
 10
63.647
 11
63.901
 20
268.299
 21
268.115
  0
LINE
  8
0
 10
63.901
 11
64.111
 20
268.115
 21
267.882
  0
LINE
  8
0
 10
64.111
 11
64.267
 20
267.882
 21
267.61
  0
LINE
  8
0
 10
64.267
 11
64.364
 20
267.61
 21
267.312
  0
LINE
  8
0
 10
64.364
 11
64.397
 20
267.312
 21
267
  0
LINE
  8
0
 10
64.397
 11
64.364
 20
267
 21
266.688
  0
LINE
  8
0
 10
64.364
 11
64.267
 20
266.688
 21
266.39
  0
LINE
  8
0
 10
64.267
 11
64.111
 20
266.39
 21
266.118
  0
LINE
  8
0
 10
64.111
 11
63.901
 20
266.118
 21
265.885
  0
LINE
  8
0
 10
63.901
 11
63.647
 20
265.885
 21
265.701
  0
LINE
  8
0
 10
63.647
 11
63.361
 20
265.701
 21
265.573
  0
LINE
  8
0
 10
63.361
 11
63.054
 20
265.573
 21
265.508
  0
LINE
  8
0
 10
63.054
 11
62.74
 20
265.508
 21
265.508
  0
LINE
  8
0
 10
62.74
 11
62.433
 20
265.508
 21
265.573
  0
LINE
  8
0
 10
62.433
 11
62.147
 20
265.573
 21
265.701
  0
LINE
  8
0
 10
62.147
 11
61.893
 20
265.701
 21
265.885
  0
LINE
  8
0
 10
61.893
 11
61.683
 20
265.885
 21
266.118
  0
LINE
  8
0
 10
61.683
 11
61.527
 20
266.118
 21
266.39
  0
LINE
  8
0
 10
61.527
 11
61.43
 20
266.39
 21
266.688
  0
LINE
  8
0
 10
61.43
 11
61.397
 20
266.688
 21
267
  0
LINE
  8
0
 10
78.825
 11
78.825
 20
48
 21
68
  0
LINE
  8
0
 10
78.825
 11
98.825
 20
68
 21
68
  0
LINE
  8
0
 10
98.825
 11
98.825
 20
68
 21
48
  0
LINE
  8
0
 10
98.825
 11
78.825
 20
48
 21
48
  0
LINE
  8
0
 10
78.952
 11
78.952
 20
49.016
 21
66.984
  0
LINE
  8
0
 10
78.952
 11
88.825
 20
66.984
 21
66.984
  0
LINE
  8
0
 10
88.825
 11
88.825
 20
66.984
 21
49.016
  0
LINE
  8
0
 10
88.825
 11
78.952
 20
49.016
 21
49.016
  0
LINE
  8
0
 10
89.333
 11
89.333
 20
48.127
 21
57.619
  0
LINE
  8
0
 10
89.333
 11
97.809
 20
57.619
 21
57.619
  0
LINE
  8
0
 10
97.809
 11
97.809
 20
57.619
 21
48.127
  0
LINE
  8
0
 10
97.809
 11
89.333
 20
48.127
 21
48.127
  0
LINE
  8
0
 10
89.333
 11
89.333
 20
58.381
 21
67.873
  0
LINE
  8
0
 10
89.333
 11
97.809
 20
67.873
 21
67.873
  0
LINE
  8
0
 10
97.809
 11
97.809
 20
67.873
 21
58.381
  0
LINE
  8
0
 10
97.809
 11
89.333
 20
58.381
 21
58.381
  0
LINE
  8
0
 10
91.818
 11
91.85
 20
53.127
 21
53.439
  0
LINE
  8
0
 10
91.85
 11
91.947
 20
53.439
 21
53.737
  0
LINE
  8
0
 10
91.947
 11
92.104
 20
53.737
 21
54.009
  0
LINE
  8
0
 10
92.104
 11
92.314
 20
54.009
 21
54.242
  0
LINE
  8
0
 10
92.314
 11
92.568
 20
54.242
 21
54.426
  0
LINE
  8
0
 10
92.568
 11
92.854
 20
54.426
 21
54.554
  0
LINE
  8
0
 10
92.854
 11
93.161
 20
54.554
 21
54.619
  0
LINE
  8
0
 10
93.161
 11
93.474
 20
54.619
 21
54.619
  0
LINE
  8
0
 10
93.474
 11
93.781
 20
54.619
 21
54.554
  0
LINE
  8
0
 10
93.781
 11
94.068
 20
54.554
 21
54.426
  0
LINE
  8
0
 10
94.068
 11
94.321
 20
54.426
 21
54.242
  0
LINE
  8
0
 10
94.321
 11
94.531
 20
54.242
 21
54.009
  0
LINE
  8
0
 10
94.531
 11
94.688
 20
54.009
 21
53.737
  0
LINE
  8
0
 10
94.688
 11
94.785
 20
53.737
 21
53.439
  0
LINE
  8
0
 10
94.785
 11
94.818
 20
53.439
 21
53.127
  0
LINE
  8
0
 10
94.818
 11
94.785
 20
53.127
 21
52.815
  0
LINE
  8
0
 10
94.785
 11
94.688
 20
52.815
 21
52.517
  0
LINE
  8
0
 10
94.688
 11
94.531
 20
52.517
 21
52.245
  0
LINE
  8
0
 10
94.531
 11
94.321
 20
52.245
 21
52.012
  0
LINE
  8
0
 10
94.321
 11
94.068
 20
52.012
 21
51.828
  0
LINE
  8
0
 10
94.068
 11
93.781
 20
51.828
 21
51.7
  0
LINE
  8
0
 10
93.781
 11
93.474
 20
51.7
 21
51.635
  0
LINE
  8
0
 10
93.474
 11
93.161
 20
51.635
 21
51.635
  0
LINE
  8
0
 10
93.161
 11
92.854
 20
51.635
 21
51.7
  0
LINE
  8
0
 10
92.854
 11
92.568
 20
51.7
 21
51.828
  0
LINE
  8
0
 10
92.568
 11
92.314
 20
51.828
 21
52.012
  0
LINE
  8
0
 10
92.314
 11
92.104
 20
52.012
 21
52.245
  0
LINE
  8
0
 10
92.104
 11
91.947
 20
52.245
 21
52.517
  0
LINE
  8
0
 10
91.947
 11
91.85
 20
52.517
 21
52.815
  0
LINE
  8
0
 10
91.85
 11
91.818
 20
52.815
 21
53.127
  0
LINE
  8
0
 10
91.818
 11
91.85
 20
63.381
 21
63.693
  0
LINE
  8
0
 10
91.85
 11
91.947
 20
63.693
 21
63.991
  0
LINE
  8
0
 10
91.947
 11
92.104
 20
63.991
 21
64.263
  0
LINE
  8
0
 10
92.104
 11
92.314
 20
64.263
 21
64.496
  0
LINE
  8
0
 10
92.314
 11
92.568
 20
64.496
 21
64.68
  0
LINE
  8
0
 10
92.568
 11
92.854
 20
64.68
 21
64.808
  0
LINE
  8
0
 10
92.854
 11
93.161
 20
64.808
 21
64.873
  0
LINE
  8
0
 10
93.161
 11
93.474
 20
64.873
 21
64.873
  0
LINE
  8
0
 10
93.474
 11
93.781
 20
64.873
 21
64.808
  0
LINE
  8
0
 10
93.781
 11
94.068
 20
64.808
 21
64.68
  0
LINE
  8
0
 10
94.068
 11
94.321
 20
64.68
 21
64.496
  0
LINE
  8
0
 10
94.321
 11
94.531
 20
64.496
 21
64.263
  0
LINE
  8
0
 10
94.531
 11
94.688
 20
64.263
 21
63.991
  0
LINE
  8
0
 10
94.688
 11
94.785
 20
63.991
 21
63.693
  0
LINE
  8
0
 10
94.785
 11
94.818
 20
63.693
 21
63.381
  0
LINE
  8
0
 10
94.818
 11
94.785
 20
63.381
 21
63.069
  0
LINE
  8
0
 10
94.785
 11
94.688
 20
63.069
 21
62.771
  0
LINE
  8
0
 10
94.688
 11
94.531
 20
62.771
 21
62.499
  0
LINE
  8
0
 10
94.531
 11
94.321
 20
62.499
 21
62.266
  0
LINE
  8
0
 10
94.321
 11
94.068
 20
62.266
 21
62.082
  0
LINE
  8
0
 10
94.068
 11
93.781
 20
62.082
 21
61.954
  0
LINE
  8
0
 10
93.781
 11
93.474
 20
61.954
 21
61.889
  0
LINE
  8
0
 10
93.474
 11
93.161
 20
61.889
 21
61.889
  0
LINE
  8
0
 10
93.161
 11
92.854
 20
61.889
 21
61.954
  0
LINE
  8
0
 10
92.854
 11
92.568
 20
61.954
 21
62.082
  0
LINE
  8
0
 10
92.568
 11
92.314
 20
62.082
 21
62.266
  0
LINE
  8
0
 10
92.314
 11
92.104
 20
62.266
 21
62.499
  0
LINE
  8
0
 10
92.104
 11
91.947
 20
62.499
 21
62.771
  0
LINE
  8
0
 10
91.947
 11
91.85
 20
62.771
 21
63.069
  0
LINE
  8
0
 10
91.85
 11
91.818
 20
63.069
 21
63.381
  0
LINE
  8
0
 10
106.746
 11
106.746
 20
68
 21
100.032
  0
LINE
  8
0
 10
106.746
 11
121.762
 20
100.032
 21
100.032
  0
LINE
  8
0
 10
121.762
 11
121.762
 20
100.032
 21
68
  0
LINE
  8
0
 10
121.762
 11
106.746
 20
68
 21
68
  0
LINE
  8
0
 10
106.746
 11
106.746
 20
172
 21
204.032
  0
LINE
  8
0
 10
106.746
 11
121.762
 20
204.032
 21
204.032
  0
LINE
  8
0
 10
121.762
 11
121.762
 20
204.032
 21
172
  0
LINE
  8
0
 10
121.762
 11
106.746
 20
172
 21
172
  0
LINE
  8
0
 10
106.873
 11
106.873
 20
69.016
 21
99.016
  0
LINE
  8
0
 10
106.873
 11
113.365
 20
99.016
 21
99.016
  0
LINE
  8
0
 10
113.365
 11
113.365
 20
99.016
 21
69.016
  0
LINE
  8
0
 10
113.365
 11
106.873
 20
69.016
 21
69.016
  0
LINE
  8
0
 10
106.873
 11
106.873
 20
173.016
 21
203.016
  0
LINE
  8
0
 10
106.873
 11
113.365
 20
203.016
 21
203.016
  0
LINE
  8
0
 10
113.365
 11
113.365
 20
203.016
 21
173.016
  0
LINE
  8
0
 10
113.365
 11
106.873
 20
173.016
 21
173.016
  0
LINE
  8
0
 10
115.143
 11
115.143
 20
69.016
 21
99.016
  0
LINE
  8
0
 10
115.143
 11
121.635
 20
99.016
 21
99.016
  0
LINE
  8
0
 10
121.635
 11
121.635
 20
99.016
 21
69.016
  0
LINE
  8
0
 10
121.635
 11
115.143
 20
69.016
 21
69.016
  0
LINE
  8
0
 10
115.143
 11
115.143
 20
173.016
 21
203.016
  0
LINE
  8
0
 10
115.143
 11
121.635
 20
203.016
 21
203.016
  0
LINE
  8
0
 10
121.635
 11
121.635
 20
203.016
 21
173.016
  0
LINE
  8
0
 10
121.635
 11
115.143
 20
173.016
 21
173.016
  0
LINE
  8
0
 10
170.381
 11
170.381
 20
16
 21
275.492
  0
LINE
  8
0
 10
170.381
 11
184.523
 20
275.492
 21
275.492
  0
LINE
  8
0
 10
184.523
 11
184.523
 20
275.492
 21
16
  0
LINE
  8
0
 10
184.523
 11
170.381
 20
16
 21
16
  0
LINE
  8
0
 10
205.143
 11
205.143
 20
16
 21
276
  0
LINE
  8
0
 10
205.143
 11
220.143
 20
276
 21
276
  0
LINE
  8
0
 10
220.143
 11
220.143
 20
276
 21
16
  0
LINE
  8
0
 10
220.143
 11
205.143
 20
16
 21
16
  0
LINE
  8
0
 10
212.143
 11
212.154
 20
25
 21
25.104
  0
LINE
  8
0
 10
212.154
 11
212.186
 20
25.104
 21
25.203
  0
LINE
  8
0
 10
212.186
 11
212.238
 20
25.203
 21
25.294
  0
LINE
  8
0
 10
212.238
 11
212.308
 20
25.294
 21
25.372
  0
LINE
  8
0
 10
212.308
 11
212.393
 20
25.372
 21
25.433
  0
LINE
  8
0
 10
212.393
 11
212.488
 20
25.433
 21
25.476
  0
LINE
  8
0
 10
212.488
 11
212.591
 20
25.476
 21
25.497
  0
LINE
  8
0
 10
212.591
 11
212.695
 20
25.497
 21
25.497
  0
LINE
  8
0
 10
212.695
 11
212.798
 20
25.497
 21
25.476
  0
LINE
  8
0
 10
212.798
 11
212.893
 20
25.476
 21
25.433
  0
LINE
  8
0
 10
212.893
 11
212.978
 20
25.433
 21
25.372
  0
LINE
  8
0
 10
212.978
 11
213.048
 20
25.372
 21
25.294
  0
LINE
  8
0
 10
213.048
 11
213.1
 20
25.294
 21
25.203
  0
LINE
  8
0
 10
213.1
 11
213.132
 20
25.203
 21
25.104
  0
LINE
  8
0
 10
213.132
 11
213.143
 20
25.104
 21
25
  0
LINE
  8
0
 10
213.143
 11
213.132
 20
25
 21
24.896
  0
LINE
  8
0
 10
213.132
 11
213.1
 20
24.896
 21
24.797
  0
LINE
  8
0
 10
213.1
 11
213.048
 20
24.797
 21
24.706
  0
LINE
  8
0
 10
213.048
 11
212.978
 20
24.706
 21
24.628
  0
LINE
  8
0
 10
212.978
 11
212.893
 20
24.628
 21
24.567
  0
LINE
  8
0
 10
212.893
 11
212.798
 20
24.567
 21
24.524
  0
LINE
  8
0
 10
212.798
 11
212.695
 20
24.524
 21
24.503
  0
LINE
  8
0
 10
212.695
 11
212.591
 20
24.503
 21
24.503
  0
LINE
  8
0
 10
212.591
 11
212.488
 20
24.503
 21
24.524
  0
LINE
  8
0
 10
212.488
 11
212.393
 20
24.524
 21
24.567
  0
LINE
  8
0
 10
212.393
 11
212.308
 20
24.567
 21
24.628
  0
LINE
  8
0
 10
212.308
 11
212.238
 20
24.628
 21
24.706
  0
LINE
  8
0
 10
212.238
 11
212.186
 20
24.706
 21
24.797
  0
LINE
  8
0
 10
212.186
 11
212.154
 20
24.797
 21
24.896
  0
LINE
  8
0
 10
212.154
 11
212.143
 20
24.896
 21
25
  0
LINE
  8
0
 10
212.143
 11
212.154
 20
146
 21
146.104
  0
LINE
  8
0
 10
212.154
 11
212.186
 20
146.104
 21
146.203
  0
LINE
  8
0
 10
212.186
 11
212.238
 20
146.203
 21
146.294
  0
LINE
  8
0
 10
212.238
 11
212.308
 20
146.294
 21
146.372
  0
LINE
  8
0
 10
212.308
 11
212.393
 20
146.372
 21
146.433
  0
LINE
  8
0
 10
212.393
 11
212.488
 20
146.433
 21
146.476
  0
LINE
  8
0
 10
212.488
 11
212.591
 20
146.476
 21
146.497
  0
LINE
  8
0
 10
212.591
 11
212.695
 20
146.497
 21
146.497
  0
LINE
  8
0
 10
212.695
 11
212.798
 20
146.497
 21
146.476
  0
LINE
  8
0
 10
212.798
 11
212.893
 20
146.476
 21
146.433
  0
LINE
  8
0
 10
212.893
 11
212.978
 20
146.433
 21
146.372
  0
LINE
  8
0
 10
212.978
 11
213.048
 20
146.372
 21
146.294
  0
LINE
  8
0
 10
213.048
 11
213.1
 20
146.294
 21
146.203
  0
LINE
  8
0
 10
213.1
 11
213.132
 20
146.203
 21
146.104
  0
LINE
  8
0
 10
213.132
 11
213.143
 20
146.104
 21
146
  0
LINE
  8
0
 10
213.143
 11
213.132
 20
146
 21
145.896
  0
LINE
  8
0
 10
213.132
 11
213.1
 20
145.896
 21
145.797
  0
LINE
  8
0
 10
213.1
 11
213.048
 20
145.797
 21
145.706
  0
LINE
  8
0
 10
213.048
 11
212.978
 20
145.706
 21
145.628
  0
LINE
  8
0
 10
212.978
 11
212.893
 20
145.628
 21
145.567
  0
LINE
  8
0
 10
212.893
 11
212.798
 20
145.567
 21
145.524
  0
LINE
  8
0
 10
212.798
 11
212.695
 20
145.524
 21
145.503
  0
LINE
  8
0
 10
212.695
 11
212.591
 20
145.503
 21
145.503
  0
LINE
  8
0
 10
212.591
 11
212.488
 20
145.503
 21
145.524
  0
LINE
  8
0
 10
212.488
 11
212.393
 20
145.524
 21
145.567
  0
LINE
  8
0
 10
212.393
 11
212.308
 20
145.567
 21
145.628
  0
LINE
  8
0
 10
212.308
 11
212.238
 20
145.628
 21
145.706
  0
LINE
  8
0
 10
212.238
 11
212.186
 20
145.706
 21
145.797
  0
LINE
  8
0
 10
212.186
 11
212.154
 20
145.797
 21
145.896
  0
LINE
  8
0
 10
212.154
 11
212.143
 20
145.896
 21
146
  0
LINE
  8
0
 10
212.143
 11
212.154
 20
267
 21
267.104
  0
LINE
  8
0
 10
212.154
 11
212.186
 20
267.104
 21
267.203
  0
LINE
  8
0
 10
212.186
 11
212.238
 20
267.203
 21
267.294
  0
LINE
  8
0
 10
212.238
 11
212.308
 20
267.294
 21
267.372
  0
LINE
  8
0
 10
212.308
 11
212.393
 20
267.372
 21
267.433
  0
LINE
  8
0
 10
212.393
 11
212.488
 20
267.433
 21
267.476
  0
LINE
  8
0
 10
212.488
 11
212.591
 20
267.476
 21
267.497
  0
LINE
  8
0
 10
212.591
 11
212.695
 20
267.497
 21
267.497
  0
LINE
  8
0
 10
212.695
 11
212.798
 20
267.497
 21
267.476
  0
LINE
  8
0
 10
212.798
 11
212.893
 20
267.476
 21
267.433
  0
LINE
  8
0
 10
212.893
 11
212.978
 20
267.433
 21
267.372
  0
LINE
  8
0
 10
212.978
 11
213.048
 20
267.372
 21
267.294
  0
LINE
  8
0
 10
213.048
 11
213.1
 20
267.294
 21
267.203
  0
LINE
  8
0
 10
213.1
 11
213.132
 20
267.203
 21
267.104
  0
LINE
  8
0
 10
213.132
 11
213.143
 20
267.104
 21
267
  0
LINE
  8
0
 10
213.143
 11
213.132
 20
267
 21
266.896
  0
LINE
  8
0
 10
213.132
 11
213.1
 20
266.896
 21
266.797
  0
LINE
  8
0
 10
213.1
 11
213.048
 20
266.797
 21
266.706
  0
LINE
  8
0
 10
213.048
 11
212.978
 20
266.706
 21
266.628
  0
LINE
  8
0
 10
212.978
 11
212.893
 20
266.628
 21
266.567
  0
LINE
  8
0
 10
212.893
 11
212.798
 20
266.567
 21
266.524
  0
LINE
  8
0
 10
212.798
 11
212.695
 20
266.524
 21
266.503
  0
LINE
  8
0
 10
212.695
 11
212.591
 20
266.503
 21
266.503
  0
LINE
  8
0
 10
212.591
 11
212.488
 20
266.503
 21
266.524
  0
LINE
  8
0
 10
212.488
 11
212.393
 20
266.524
 21
266.567
  0
LINE
  8
0
 10
212.393
 11
212.308
 20
266.567
 21
266.628
  0
LINE
  8
0
 10
212.308
 11
212.238
 20
266.628
 21
266.706
  0
LINE
  8
0
 10
212.238
 11
212.186
 20
266.706
 21
266.797
  0
LINE
  8
0
 10
212.186
 11
212.154
 20
266.797
 21
266.896
  0
LINE
  8
0
 10
212.154
 11
212.143
 20
266.896
 21
267
  0
LINE
  8
0
 10
220.27
 11
220.27
 20
16
 21
276
  0
LINE
  8
0
 10
220.27
 11
228.93
 20
276
 21
276
  0
LINE
  8
0
 10
228.93
 11
228.93
 20
276
 21
16
  0
LINE
  8
0
 10
228.93
 11
220.27
 20
16
 21
16
  0
LINE
  8
0
 10
229.057
 11
229.057
 20
16
 21
276
  0
LINE
  8
0
 10
229.057
 11
244.2
 20
276
 21
276
  0
LINE
  8
0
 10
244.2
 11
244.2
 20
276
 21
16
  0
LINE
  8
0
 10
244.2
 11
229.057
 20
16
 21
16
  0
LINE
  8
0
 10
244.327
 11
244.327
 20
16
 21
276
  0
LINE
  8
0
 10
244.327
 11
252.988
 20
276
 21
276
  0
LINE
  8
0
 10
252.988
 11
252.988
 20
276
 21
16
  0
LINE
  8
0
 10
252.988
 11
244.327
 20
16
 21
16
  0
LINE
  8
0
 10
253.115
 11
253.115
 20
16
 21
276
  0
LINE
  8
0
 10
253.115
 11
268.115
 20
276
 21
276
  0
LINE
  8
0
 10
268.115
 11
268.115
 20
276
 21
16
  0
LINE
  8
0
 10
268.115
 11
253.115
 20
16
 21
16
  0
LINE
  8
0
 10
260.115
 11
260.125
 20
25
 21
25.104
  0
LINE
  8
0
 10
260.125
 11
260.158
 20
25.104
 21
25.203
  0
LINE
  8
0
 10
260.158
 11
260.21
 20
25.203
 21
25.294
  0
LINE
  8
0
 10
260.21
 11
260.28
 20
25.294
 21
25.372
  0
LINE
  8
0
 10
260.28
 11
260.365
 20
25.372
 21
25.433
  0
LINE
  8
0
 10
260.365
 11
260.46
 20
25.433
 21
25.476
  0
LINE
  8
0
 10
260.46
 11
260.562
 20
25.476
 21
25.497
  0
LINE
  8
0
 10
260.562
 11
260.667
 20
25.497
 21
25.497
  0
LINE
  8
0
 10
260.667
 11
260.769
 20
25.497
 21
25.476
  0
LINE
  8
0
 10
260.769
 11
260.865
 20
25.476
 21
25.433
  0
LINE
  8
0
 10
260.865
 11
260.949
 20
25.433
 21
25.372
  0
LINE
  8
0
 10
260.949
 11
261.019
 20
25.372
 21
25.294
  0
LINE
  8
0
 10
261.019
 11
261.071
 20
25.294
 21
25.203
  0
LINE
  8
0
 10
261.071
 11
261.104
 20
25.203
 21
25.104
  0
LINE
  8
0
 10
261.104
 11
261.115
 20
25.104
 21
25
  0
LINE
  8
0
 10
261.115
 11
261.104
 20
25
 21
24.896
  0
LINE
  8
0
 10
261.104
 11
261.071
 20
24.896
 21
24.797
  0
LINE
  8
0
 10
261.071
 11
261.019
 20
24.797
 21
24.706
  0
LINE
  8
0
 10
261.019
 11
260.949
 20
24.706
 21
24.628
  0
LINE
  8
0
 10
260.949
 11
260.865
 20
24.628
 21
24.567
  0
LINE
  8
0
 10
260.865
 11
260.769
 20
24.567
 21
24.524
  0
LINE
  8
0
 10
260.769
 11
260.667
 20
24.524
 21
24.503
  0
LINE
  8
0
 10
260.667
 11
260.562
 20
24.503
 21
24.503
  0
LINE
  8
0
 10
260.562
 11
260.46
 20
24.503
 21
24.524
  0
LINE
  8
0
 10
260.46
 11
260.365
 20
24.524
 21
24.567
  0
LINE
  8
0
 10
260.365
 11
260.28
 20
24.567
 21
24.628
  0
LINE
  8
0
 10
260.28
 11
260.21
 20
24.628
 21
24.706
  0
LINE
  8
0
 10
260.21
 11
260.158
 20
24.706
 21
24.797
  0
LINE
  8
0
 10
260.158
 11
260.125
 20
24.797
 21
24.896
  0
LINE
  8
0
 10
260.125
 11
260.115
 20
24.896
 21
25
  0
LINE
  8
0
 10
260.115
 11
260.125
 20
146
 21
146.104
  0
LINE
  8
0
 10
260.125
 11
260.158
 20
146.104
 21
146.203
  0
LINE
  8
0
 10
260.158
 11
260.21
 20
146.203
 21
146.294
  0
LINE
  8
0
 10
260.21
 11
260.28
 20
146.294
 21
146.372
  0
LINE
  8
0
 10
260.28
 11
260.365
 20
146.372
 21
146.433
  0
LINE
  8
0
 10
260.365
 11
260.46
 20
146.433
 21
146.476
  0
LINE
  8
0
 10
260.46
 11
260.562
 20
146.476
 21
146.497
  0
LINE
  8
0
 10
260.562
 11
260.667
 20
146.497
 21
146.497
  0
LINE
  8
0
 10
260.667
 11
260.769
 20
146.497
 21
146.476
  0
LINE
  8
0
 10
260.769
 11
260.865
 20
146.476
 21
146.433
  0
LINE
  8
0
 10
260.865
 11
260.949
 20
146.433
 21
146.372
  0
LINE
  8
0
 10
260.949
 11
261.019
 20
146.372
 21
146.294
  0
LINE
  8
0
 10
261.019
 11
261.071
 20
146.294
 21
146.203
  0
LINE
  8
0
 10
261.071
 11
261.104
 20
146.203
 21
146.104
  0
LINE
  8
0
 10
261.104
 11
261.115
 20
146.104
 21
146
  0
LINE
  8
0
 10
261.115
 11
261.104
 20
146
 21
145.896
  0
LINE
  8
0
 10
261.104
 11
261.071
 20
145.896
 21
145.797
  0
LINE
  8
0
 10
261.071
 11
261.019
 20
145.797
 21
145.706
  0
LINE
  8
0
 10
261.019
 11
260.949
 20
145.706
 21
145.628
  0
LINE
  8
0
 10
260.949
 11
260.865
 20
145.628
 21
145.567
  0
LINE
  8
0
 10
260.865
 11
260.769
 20
145.567
 21
145.524
  0
LINE
  8
0
 10
260.769
 11
260.667
 20
145.524
 21
145.503
  0
LINE
  8
0
 10
260.667
 11
260.562
 20
145.503
 21
145.503
  0
LINE
  8
0
 10
260.562
 11
260.46
 20
145.503
 21
145.524
  0
LINE
  8
0
 10
260.46
 11
260.365
 20
145.524
 21
145.567
  0
LINE
  8
0
 10
260.365
 11
260.28
 20
145.567
 21
145.628
  0
LINE
  8
0
 10
260.28
 11
260.21
 20
145.628
 21
145.706
  0
LINE
  8
0
 10
260.21
 11
260.158
 20
145.706
 21
145.797
  0
LINE
  8
0
 10
260.158
 11
260.125
 20
145.797
 21
145.896
  0
LINE
  8
0
 10
260.125
 11
260.115
 20
145.896
 21
146
  0
LINE
  8
0
 10
260.115
 11
260.125
 20
267
 21
267.104
  0
LINE
  8
0
 10
260.125
 11
260.158
 20
267.104
 21
267.203
  0
LINE
  8
0
 10
260.158
 11
260.21
 20
267.203
 21
267.294
  0
LINE
  8
0
 10
260.21
 11
260.28
 20
267.294
 21
267.372
  0
LINE
  8
0
 10
260.28
 11
260.365
 20
267.372
 21
267.433
  0
LINE
  8
0
 10
260.365
 11
260.46
 20
267.433
 21
267.476
  0
LINE
  8
0
 10
260.46
 11
260.562
 20
267.476
 21
267.497
  0
LINE
  8
0
 10
260.562
 11
260.667
 20
267.497
 21
267.497
  0
LINE
  8
0
 10
260.667
 11
260.769
 20
267.497
 21
267.476
  0
LINE
  8
0
 10
260.769
 11
260.865
 20
267.476
 21
267.433
  0
LINE
  8
0
 10
260.865
 11
260.949
 20
267.433
 21
267.372
  0
LINE
  8
0
 10
260.949
 11
261.019
 20
267.372
 21
267.294
  0
LINE
  8
0
 10
261.019
 11
261.071
 20
267.294
 21
267.203
  0
LINE
  8
0
 10
261.071
 11
261.104
 20
267.203
 21
267.104
  0
LINE
  8
0
 10
261.104
 11
261.115
 20
267.104
 21
267
  0
LINE
  8
0
 10
261.115
 11
261.104
 20
267
 21
266.896
  0
LINE
  8
0
 10
261.104
 11
261.071
 20
266.896
 21
266.797
  0
LINE
  8
0
 10
261.071
 11
261.019
 20
266.797
 21
266.706
  0
LINE
  8
0
 10
261.019
 11
260.949
 20
266.706
 21
266.628
  0
LINE
  8
0
 10
260.949
 11
260.865
 20
266.628
 21
266.567
  0
LINE
  8
0
 10
260.865
 11
260.769
 20
266.567
 21
266.524
  0
LINE
  8
0
 10
260.769
 11
260.667
 20
266.524
 21
266.503
  0
LINE
  8
0
 10
260.667
 11
260.562
 20
266.503
 21
266.503
  0
LINE
  8
0
 10
260.562
 11
260.46
 20
266.503
 21
266.524
  0
LINE
  8
0
 10
260.46
 11
260.365
 20
266.524
 21
266.567
  0
LINE
  8
0
 10
260.365
 11
260.28
 20
266.567
 21
266.628
  0
LINE
  8
0
 10
260.28
 11
260.21
 20
266.628
 21
266.706
  0
LINE
  8
0
 10
260.21
 11
260.158
 20
266.706
 21
266.797
  0
LINE
  8
0
 10
260.158
 11
260.125
 20
266.797
 21
266.896
  0
LINE
  8
0
 10
260.125
 11
260.115
 20
266.896
 21
267
  0
LINE
  8
0
 10
295.572
 11
295.572
 20
16
 21
276
  0
LINE
  8
0
 10
295.572
 11
305.572
 20
276
 21
276
  0
LINE
  8
0
 10
305.572
 11
305.572
 20
276
 21
16
  0
LINE
  8
0
 10
305.572
 11
295.572
 20
16
 21
16
  0
LINE
  8
0
 10
301.572
 11
301.605
 20
25
 21
25.312
  0
LINE
  8
0
 10
301.605
 11
301.702
 20
25.312
 21
25.61
  0
LINE
  8
0
 10
301.702
 11
301.858
 20
25.61
 21
25.882
  0
LINE
  8
0
 10
301.858
 11
302.068
 20
25.882
 21
26.115
  0
LINE
  8
0
 10
302.068
 11
302.322
 20
26.115
 21
26.299
  0
LINE
  8
0
 10
302.322
 11
302.608
 20
26.299
 21
26.427
  0
LINE
  8
0
 10
302.608
 11
302.915
 20
26.427
 21
26.492
  0
LINE
  8
0
 10
302.915
 11
303.229
 20
26.492
 21
26.492
  0
LINE
  8
0
 10
303.229
 11
303.536
 20
26.492
 21
26.427
  0
LINE
  8
0
 10
303.536
 11
303.822
 20
26.427
 21
26.299
  0
LINE
  8
0
 10
303.822
 11
304.076
 20
26.299
 21
26.115
  0
LINE
  8
0
 10
304.076
 11
304.286
 20
26.115
 21
25.882
  0
LINE
  8
0
 10
304.286
 11
304.442
 20
25.882
 21
25.61
  0
LINE
  8
0
 10
304.442
 11
304.539
 20
25.61
 21
25.312
  0
LINE
  8
0
 10
304.539
 11
304.572
 20
25.312
 21
25
  0
LINE
  8
0
 10
304.572
 11
304.539
 20
25
 21
24.688
  0
LINE
  8
0
 10
304.539
 11
304.442
 20
24.688
 21
24.39
  0
LINE
  8
0
 10
304.442
 11
304.286
 20
24.39
 21
24.118
  0
LINE
  8
0
 10
304.286
 11
304.076
 20
24.118
 21
23.885
  0
LINE
  8
0
 10
304.076
 11
303.822
 20
23.885
 21
23.701
  0
LINE
  8
0
 10
303.822
 11
303.536
 20
23.701
 21
23.573
  0
LINE
  8
0
 10
303.536
 11
303.229
 20
23.573
 21
23.508
  0
LINE
  8
0
 10
303.229
 11
302.915
 20
23.508
 21
23.508
  0
LINE
  8
0
 10
302.915
 11
302.608
 20
23.508
 21
23.573
  0
LINE
  8
0
 10
302.608
 11
302.322
 20
23.573
 21
23.701
  0
LINE
  8
0
 10
302.322
 11
302.068
 20
23.701
 21
23.885
  0
LINE
  8
0
 10
302.068
 11
301.858
 20
23.885
 21
24.118
  0
LINE
  8
0
 10
301.858
 11
301.702
 20
24.118
 21
24.39
  0
LINE
  8
0
 10
301.702
 11
301.605
 20
24.39
 21
24.688
  0
LINE
  8
0
 10
301.605
 11
301.572
 20
24.688
 21
25
  0
LINE
  8
0
 10
301.572
 11
301.605
 20
146
 21
146.312
  0
LINE
  8
0
 10
301.605
 11
301.702
 20
146.312
 21
146.61
  0
LINE
  8
0
 10
301.702
 11
301.858
 20
146.61
 21
146.882
  0
LINE
  8
0
 10
301.858
 11
302.068
 20
146.882
 21
147.115
  0
LINE
  8
0
 10
302.068
 11
302.322
 20
147.115
 21
147.299
  0
LINE
  8
0
 10
302.322
 11
302.608
 20
147.299
 21
147.427
  0
LINE
  8
0
 10
302.608
 11
302.915
 20
147.427
 21
147.492
  0
LINE
  8
0
 10
302.915
 11
303.229
 20
147.492
 21
147.492
  0
LINE
  8
0
 10
303.229
 11
303.536
 20
147.492
 21
147.427
  0
LINE
  8
0
 10
303.536
 11
303.822
 20
147.427
 21
147.299
  0
LINE
  8
0
 10
303.822
 11
304.076
 20
147.299
 21
147.115
  0
LINE
  8
0
 10
304.076
 11
304.286
 20
147.115
 21
146.882
  0
LINE
  8
0
 10
304.286
 11
304.442
 20
146.882
 21
146.61
  0
LINE
  8
0
 10
304.442
 11
304.539
 20
146.61
 21
146.312
  0
LINE
  8
0
 10
304.539
 11
304.572
 20
146.312
 21
146
  0
LINE
  8
0
 10
304.572
 11
304.539
 20
146
 21
145.688
  0
LINE
  8
0
 10
304.539
 11
304.442
 20
145.688
 21
145.39
  0
LINE
  8
0
 10
304.442
 11
304.286
 20
145.39
 21
145.118
  0
LINE
  8
0
 10
304.286
 11
304.076
 20
145.118
 21
144.885
  0
LINE
  8
0
 10
304.076
 11
303.822
 20
144.885
 21
144.701
  0
LINE
  8
0
 10
303.822
 11
303.536
 20
144.701
 21
144.573
  0
LINE
  8
0
 10
303.536
 11
303.229
 20
144.573
 21
144.508
  0
LINE
  8
0
 10
303.229
 11
302.915
 20
144.508
 21
144.508
  0
LINE
  8
0
 10
302.915
 11
302.608
 20
144.508
 21
144.573
  0
LINE
  8
0
 10
302.608
 11
302.322
 20
144.573
 21
144.701
  0
LINE
  8
0
 10
302.322
 11
302.068
 20
144.701
 21
144.885
  0
LINE
  8
0
 10
302.068
 11
301.858
 20
144.885
 21
145.118
  0
LINE
  8
0
 10
301.858
 11
301.702
 20
145.118
 21
145.39
  0
LINE
  8
0
 10
301.702
 11
301.605
 20
145.39
 21
145.688
  0
LINE
  8
0
 10
301.605
 11
301.572
 20
145.688
 21
146
  0
LINE
  8
0
 10
301.572
 11
301.605
 20
267
 21
267.312
  0
LINE
  8
0
 10
301.605
 11
301.702
 20
267.312
 21
267.61
  0
LINE
  8
0
 10
301.702
 11
301.858
 20
267.61
 21
267.882
  0
LINE
  8
0
 10
301.858
 11
302.068
 20
267.882
 21
268.115
  0
LINE
  8
0
 10
302.068
 11
302.322
 20
268.115
 21
268.299
  0
LINE
  8
0
 10
302.322
 11
302.608
 20
268.299
 21
268.427
  0
LINE
  8
0
 10
302.608
 11
302.915
 20
268.427
 21
268.492
  0
LINE
  8
0
 10
302.915
 11
303.229
 20
268.492
 21
268.492
  0
LINE
  8
0
 10
303.229
 11
303.536
 20
268.492
 21
268.427
  0
LINE
  8
0
 10
303.536
 11
303.822
 20
268.427
 21
268.299
  0
LINE
  8
0
 10
303.822
 11
304.076
 20
268.299
 21
268.115
  0
LINE
  8
0
 10
304.076
 11
304.286
 20
268.115
 21
267.882
  0
LINE
  8
0
 10
304.286
 11
304.442
 20
267.882
 21
267.61
  0
LINE
  8
0
 10
304.442
 11
304.539
 20
267.61
 21
267.312
  0
LINE
  8
0
 10
304.539
 11
304.572
 20
267.312
 21
267
  0
LINE
  8
0
 10
304.572
 11
304.539
 20
267
 21
266.688
  0
LINE
  8
0
 10
304.539
 11
304.442
 20
266.688
 21
266.39
  0
LINE
  8
0
 10
304.442
 11
304.286
 20
266.39
 21
266.118
  0
LINE
  8
0
 10
304.286
 11
304.076
 20
266.118
 21
265.885
  0
LINE
  8
0
 10
304.076
 11
303.822
 20
265.885
 21
265.701
  0
LINE
  8
0
 10
303.822
 11
303.536
 20
265.701
 21
265.573
  0
LINE
  8
0
 10
303.536
 11
303.229
 20
265.573
 21
265.508
  0
LINE
  8
0
 10
303.229
 11
302.915
 20
265.508
 21
265.508
  0
LINE
  8
0
 10
302.915
 11
302.608
 20
265.508
 21
265.573
  0
LINE
  8
0
 10
302.608
 11
302.322
 20
265.573
 21
265.701
  0
LINE
  8
0
 10
302.322
 11
302.068
 20
265.701
 21
265.885
  0
LINE
  8
0
 10
302.068
 11
301.858
 20
265.885
 21
266.118
  0
LINE
  8
0
 10
301.858
 11
301.702
 20
266.118
 21
266.39
  0
LINE
  8
0
 10
301.702
 11
301.605
 20
266.39
 21
266.688
  0
LINE
  8
0
 10
301.605
 11
301.572
 20
266.688
 21
267
  0
LINE
  8
0
 10
305.699
 11
305.699
 20
16
 21
276
  0
LINE
  8
0
 10
305.699
 11
318.909
 20
276
 21
276
  0
LINE
  8
0
 10
318.909
 11
318.909
 20
276
 21
16
  0
LINE
  8
0
 10
318.909
 11
305.699
 20
16
 21
16
  0
LINE
  8
0
 10
319.036
 11
319.036
 20
16
 21
276
  0
LINE
  8
0
 10
319.036
 11
339.179
 20
276
 21
276
  0
LINE
  8
0
 10
339.179
 11
339.179
 20
276
 21
16
  0
LINE
  8
0
 10
339.179
 11
319.036
 20
16
 21
16
  0
LINE
  8
0
 10
339.306
 11
339.306
 20
16
 21
276
  0
LINE
  8
0
 10
339.306
 11
352.517
 20
276
 21
276
  0
LINE
  8
0
 10
352.517
 11
352.517
 20
276
 21
16
  0
LINE
  8
0
 10
352.517
 11
339.306
 20
16
 21
16
  0
LINE
  8
0
 10
353.644
 11
353.676
 20
25
 21
25.312
  0
LINE
  8
0
 10
353.676
 11
353.773
 20
25.312
 21
25.61
  0
LINE
  8
0
 10
353.773
 11
353.93
 20
25.61
 21
25.882
  0
LINE
  8
0
 10
353.93
 11
354.14
 20
25.882
 21
26.115
  0
LINE
  8
0
 10
354.14
 11
354.394
 20
26.115
 21
26.299
  0
LINE
  8
0
 10
354.394
 11
354.68
 20
26.299
 21
26.427
  0
LINE
  8
0
 10
354.68
 11
354.987
 20
26.427
 21
26.492
  0
LINE
  8
0
 10
354.987
 11
355.3
 20
26.492
 21
26.492
  0
LINE
  8
0
 10
355.3
 11
355.607
 20
26.492
 21
26.427
  0
LINE
  8
0
 10
355.607
 11
355.894
 20
26.427
 21
26.299
  0
LINE
  8
0
 10
355.894
 11
356.147
 20
26.299
 21
26.115
  0
LINE
  8
0
 10
356.147
 11
356.357
 20
26.115
 21
25.882
  0
LINE
  8
0
 10
356.357
 11
356.514
 20
25.882
 21
25.61
  0
LINE
  8
0
 10
356.514
 11
356.611
 20
25.61
 21
25.312
  0
LINE
  8
0
 10
356.611
 11
356.644
 20
25.312
 21
25
  0
LINE
  8
0
 10
356.644
 11
356.611
 20
25
 21
24.688
  0
LINE
  8
0
 10
356.611
 11
356.514
 20
24.688
 21
24.39
  0
LINE
  8
0
 10
356.514
 11
356.357
 20
24.39
 21
24.118
  0
LINE
  8
0
 10
356.357
 11
356.147
 20
24.118
 21
23.885
  0
LINE
  8
0
 10
356.147
 11
355.894
 20
23.885
 21
23.701
  0
LINE
  8
0
 10
355.894
 11
355.607
 20
23.701
 21
23.573
  0
LINE
  8
0
 10
355.607
 11
355.3
 20
23.573
 21
23.508
  0
LINE
  8
0
 10
355.3
 11
354.987
 20
23.508
 21
23.508
  0
LINE
  8
0
 10
354.987
 11
354.68
 20
23.508
 21
23.573
  0
LINE
  8
0
 10
354.68
 11
354.394
 20
23.573
 21
23.701
  0
LINE
  8
0
 10
354.394
 11
354.14
 20
23.701
 21
23.885
  0
LINE
  8
0
 10
354.14
 11
353.93
 20
23.885
 21
24.118
  0
LINE
  8
0
 10
353.93
 11
353.773
 20
24.118
 21
24.39
  0
LINE
  8
0
 10
353.773
 11
353.676
 20
24.39
 21
24.688
  0
LINE
  8
0
 10
353.676
 11
353.644
 20
24.688
 21
25
  0
LINE
  8
0
 10
353.644
 11
353.676
 20
146
 21
146.312
  0
LINE
  8
0
 10
353.676
 11
353.773
 20
146.312
 21
146.61
  0
LINE
  8
0
 10
353.773
 11
353.93
 20
146.61
 21
146.882
  0
LINE
  8
0
 10
353.93
 11
354.14
 20
146.882
 21
147.115
  0
LINE
  8
0
 10
354.14
 11
354.394
 20
147.115
 21
147.299
  0
LINE
  8
0
 10
354.394
 11
354.68
 20
147.299
 21
147.427
  0
LINE
  8
0
 10
354.68
 11
354.987
 20
147.427
 21
147.492
  0
LINE
  8
0
 10
354.987
 11
355.3
 20
147.492
 21
147.492
  0
LINE
  8
0
 10
355.3
 11
355.607
 20
147.492
 21
147.427
  0
LINE
  8
0
 10
355.607
 11
355.894
 20
147.427
 21
147.299
  0
LINE
  8
0
 10
355.894
 11
356.147
 20
147.299
 21
147.115
  0
LINE
  8
0
 10
356.147
 11
356.357
 20
147.115
 21
146.882
  0
LINE
  8
0
 10
356.357
 11
356.514
 20
146.882
 21
146.61
  0
LINE
  8
0
 10
356.514
 11
356.611
 20
146.61
 21
146.312
  0
LINE
  8
0
 10
356.611
 11
356.644
 20
146.312
 21
146
  0
LINE
  8
0
 10
356.644
 11
356.611
 20
146
 21
145.688
  0
LINE
  8
0
 10
356.611
 11
356.514
 20
145.688
 21
145.39
  0
LINE
  8
0
 10
356.514
 11
356.357
 20
145.39
 21
145.118
  0
LINE
  8
0
 10
356.357
 11
356.147
 20
145.118
 21
144.885
  0
LINE
  8
0
 10
356.147
 11
355.894
 20
144.885
 21
144.701
  0
LINE
  8
0
 10
355.894
 11
355.607
 20
144.701
 21
144.573
  0
LINE
  8
0
 10
355.607
 11
355.3
 20
144.573
 21
144.508
  0
LINE
  8
0
 10
355.3
 11
354.987
 20
144.508
 21
144.508
  0
LINE
  8
0
 10
354.987
 11
354.68
 20
144.508
 21
144.573
  0
LINE
  8
0
 10
354.68
 11
354.394
 20
144.573
 21
144.701
  0
LINE
  8
0
 10
354.394
 11
354.14
 20
144.701
 21
144.885
  0
LINE
  8
0
 10
354.14
 11
353.93
 20
144.885
 21
145.118
  0
LINE
  8
0
 10
353.93
 11
353.773
 20
145.118
 21
145.39
  0
LINE
  8
0
 10
353.773
 11
353.676
 20
145.39
 21
145.688
  0
LINE
  8
0
 10
353.676
 11
353.644
 20
145.688
 21
146
  0
LINE
  8
0
 10
353.644
 11
353.676
 20
267
 21
267.312
  0
LINE
  8
0
 10
353.676
 11
353.773
 20
267.312
 21
267.61
  0
LINE
  8
0
 10
353.773
 11
353.93
 20
267.61
 21
267.882
  0
LINE
  8
0
 10
353.93
 11
354.14
 20
267.882
 21
268.115
  0
LINE
  8
0
 10
354.14
 11
354.394
 20
268.115
 21
268.299
  0
LINE
  8
0
 10
354.394
 11
354.68
 20
268.299
 21
268.427
  0
LINE
  8
0
 10
354.68
 11
354.987
 20
268.427
 21
268.492
  0
LINE
  8
0
 10
354.987
 11
355.3
 20
268.492
 21
268.492
  0
LINE
  8
0
 10
355.3
 11
355.607
 20
268.492
 21
268.427
  0
LINE
  8
0
 10
355.607
 11
355.894
 20
268.427
 21
268.299
  0
LINE
  8
0
 10
355.894
 11
356.147
 20
268.299
 21
268.115
  0
LINE
  8
0
 10
356.147
 11
356.357
 20
268.115
 21
267.882
  0
LINE
  8
0
 10
356.357
 11
356.514
 20
267.882
 21
267.61
  0
LINE
  8
0
 10
356.514
 11
356.611
 20
267.61
 21
267.312
  0
LINE
  8
0
 10
356.611
 11
356.644
 20
267.312
 21
267
  0
LINE
  8
0
 10
356.644
 11
356.611
 20
267
 21
266.688
  0
LINE
  8
0
 10
356.611
 11
356.514
 20
266.688
 21
266.39
  0
LINE
  8
0
 10
356.514
 11
356.357
 20
266.39
 21
266.118
  0
LINE
  8
0
 10
356.357
 11
356.147
 20
266.118
 21
265.885
  0
LINE
  8
0
 10
356.147
 11
355.894
 20
265.885
 21
265.701
  0
LINE
  8
0
 10
355.894
 11
355.607
 20
265.701
 21
265.573
  0
LINE
  8
0
 10
355.607
 11
355.3
 20
265.573
 21
265.508
  0
LINE
  8
0
 10
355.3
 11
354.987
 20
265.508
 21
265.508
  0
LINE
  8
0
 10
354.987
 11
354.68
 20
265.508
 21
265.573
  0
LINE
  8
0
 10
354.68
 11
354.394
 20
265.573
 21
265.701
  0
LINE
  8
0
 10
354.394
 11
354.14
 20
265.701
 21
265.885
  0
LINE
  8
0
 10
354.14
 11
353.93
 20
265.885
 21
266.118
  0
LINE
  8
0
 10
353.93
 11
353.773
 20
266.118
 21
266.39
  0
LINE
  8
0
 10
353.773
 11
353.676
 20
266.39
 21
266.688
  0
LINE
  8
0
 10
353.676
 11
353.644
 20
266.688
 21
267
  0
LINE
  8
0
 10
352.644
 11
352.644
 20
16
 21
276
  0
LINE
  8
0
 10
352.644
 11
362.644
 20
276
 21
276
  0
LINE
  8
0
 10
362.644
 11
362.644
 20
276
 21
16
  0
LINE
  8
0
 10
362.644
 11
352.644
 20
16
 21
16
  0
ENDSEC
  0
SECTION
  2
OBJECTS
  0
DICTIONARY
  0
ENDSEC
  0
EOF
