  0
SECTION
  2
BLOCKS
  0
ENDSEC
  0
SECTION
  2
ENTITIES
  0
LINE
  8
0
 10
-14.873
 11
-14.873
 20
16
 21
275.492
  0
LINE
  8
0
 10
-14.873
 11
0.127
 20
275.492
 21
275.492
  0
LINE
  8
0
 10
0.127
 11
0.127
 20
275.492
 21
16
  0
LINE
  8
0
 10
0.127
 11
-14.873
 20
16
 21
16
  0
LINE
  8
0
 10
0.254
 11
0.254
 20
-16.127
 21
-0.127
  0
LINE
  8
0
 10
0.254
 11
170.254
 20
-0.127
 21
-0.127
  0
LINE
  8
0
 10
170.254
 11
170.254
 20
-0.127
 21
-16.127
  0
LINE
  8
0
 10
170.254
 11
0.254
 20
-16.127
 21
-16.127
  0
LINE
  8
0
 10
0.254
 11
0.254
 20
0
 21
292
  0
LINE
  8
0
 10
0.254
 11
170.254
 20
292
 21
292
  0
LINE
  8
0
 10
170.254
 11
170.254
 20
292
 21
0
  0
LINE
  8
0
 10
170.254
 11
0.254
 20
0
 21
0
  0
LINE
  8
0
 10
0.254
 11
0.254
 20
292.127
 21
308.127
  0
LINE
  8
0
 10
0.254
 11
170.254
 20
308.127
 21
308.127
  0
LINE
  8
0
 10
170.254
 11
170.254
 20
308.127
 21
292.127
  0
LINE
  8
0
 10
170.254
 11
0.254
 20
292.127
 21
292.127
  0
LINE
  8
0
 10
3.063
 11
3.063
 20
18.809
 21
23.191
  0
LINE
  8
0
 10
3.063
 11
7.445
 20
23.191
 21
23.191
  0
LINE
  8
0
 10
7.445
 11
7.445
 20
23.191
 21
18.809
  0
LINE
  8
0
 10
7.445
 11
3.063
 20
18.809
 21
18.809
  0
LINE
  8
0
 10
3.063
 11
3.063
 20
23.809
 21
28.191
  0
LINE
  8
0
 10
3.063
 11
7.445
 20
28.191
 21
28.191
  0
LINE
  8
0
 10
7.445
 11
7.445
 20
28.191
 21
23.809
  0
LINE
  8
0
 10
7.445
 11
3.063
 20
23.809
 21
23.809
  0
LINE
  8
0
 10
3.063
 11
3.063
 20
28.809
 21
33.191
  0
LINE
  8
0
 10
3.063
 11
7.445
 20
33.191
 21
33.191
  0
LINE
  8
0
 10
7.445
 11
7.445
 20
33.191
 21
28.809
  0
LINE
  8
0
 10
7.445
 11
3.063
 20
28.809
 21
28.809
  0
LINE
  8
0
 10
3.063
 11
3.063
 20
33.809
 21
38.191
  0
LINE
  8
0
 10
3.063
 11
7.445
 20
38.191
 21
38.191
  0
LINE
  8
0
 10
7.445
 11
7.445
 20
38.191
 21
33.809
  0
LINE
  8
0
 10
7.445
 11
3.063
 20
33.809
 21
33.809
  0
LINE
  8
0
 10
3.063
 11
3.063
 20
38.809
 21
43.191
  0
LINE
  8
0
 10
3.063
 11
7.445
 20
43.191
 21
43.191
  0
LINE
  8
0
 10
7.445
 11
7.445
 20
43.191
 21
38.809
  0
LINE
  8
0
 10
7.445
 11
3.063
 20
38.809
 21
38.809
  0
LINE
  8
0
 10
3.063
 11
3.063
 20
43.809
 21
48.191
  0
LINE
  8
0
 10
3.063
 11
7.445
 20
48.191
 21
48.191
  0
LINE
  8
0
 10
7.445
 11
7.445
 20
48.191
 21
43.809
  0
LINE
  8
0
 10
7.445
 11
3.063
 20
43.809
 21
43.809
  0
LINE
  8
0
 10
3.063
 11
3.063
 20
48.809
 21
53.191
  0
LINE
  8
0
 10
3.063
 11
7.445
 20
53.191
 21
53.191
  0
LINE
  8
0
 10
7.445
 11
7.445
 20
53.191
 21
48.809
  0
LINE
  8
0
 10
7.445
 11
3.063
 20
48.809
 21
48.809
  0
LINE
  8
0
 10
3.063
 11
3.063
 20
53.809
 21
58.191
  0
LINE
  8
0
 10
3.063
 11
7.445
 20
58.191
 21
58.191
  0
LINE
  8
0
 10
7.445
 11
7.445
 20
58.191
 21
53.809
  0
LINE
  8
0
 10
7.445
 11
3.063
 20
53.809
 21
53.809
  0
LINE
  8
0
 10
3.063
 11
3.063
 20
58.809
 21
63.191
  0
LINE
  8
0
 10
3.063
 11
7.445
 20
63.191
 21
63.191
  0
LINE
  8
0
 10
7.445
 11
7.445
 20
63.191
 21
58.809
  0
LINE
  8
0
 10
7.445
 11
3.063
 20
58.809
 21
58.809
  0
LINE
  8
0
 10
3.063
 11
3.063
 20
63.809
 21
68.191
  0
LINE
  8
0
 10
3.063
 11
7.445
 20
68.191
 21
68.191
  0
LINE
  8
0
 10
7.445
 11
7.445
 20
68.191
 21
63.809
  0
LINE
  8
0
 10
7.445
 11
3.063
 20
63.809
 21
63.809
  0
LINE
  8
0
 10
3.063
 11
3.063
 20
68.809
 21
73.191
  0
LINE
  8
0
 10
3.063
 11
7.445
 20
73.191
 21
73.191
  0
LINE
  8
0
 10
7.445
 11
7.445
 20
73.191
 21
68.809
  0
LINE
  8
0
 10
7.445
 11
3.063
 20
68.809
 21
68.809
  0
LINE
  8
0
 10
3.063
 11
3.063
 20
73.809
 21
78.191
  0
LINE
  8
0
 10
3.063
 11
7.445
 20
78.191
 21
78.191
  0
LINE
  8
0
 10
7.445
 11
7.445
 20
78.191
 21
73.809
  0
LINE
  8
0
 10
7.445
 11
3.063
 20
73.809
 21
73.809
  0
LINE
  8
0
 10
3.063
 11
3.063
 20
78.809
 21
83.191
  0
LINE
  8
0
 10
3.063
 11
7.445
 20
83.191
 21
83.191
  0
LINE
  8
0
 10
7.445
 11
7.445
 20
83.191
 21
78.809
  0
LINE
  8
0
 10
7.445
 11
3.063
 20
78.809
 21
78.809
  0
LINE
  8
0
 10
3.063
 11
3.063
 20
83.809
 21
88.191
  0
LINE
  8
0
 10
3.063
 11
7.445
 20
88.191
 21
88.191
  0
LINE
  8
0
 10
7.445
 11
7.445
 20
88.191
 21
83.809
  0
LINE
  8
0
 10
7.445
 11
3.063
 20
83.809
 21
83.809
  0
LINE
  8
0
 10
3.063
 11
3.063
 20
88.809
 21
93.191
  0
LINE
  8
0
 10
3.063
 11
7.445
 20
93.191
 21
93.191
  0
LINE
  8
0
 10
7.445
 11
7.445
 20
93.191
 21
88.809
  0
LINE
  8
0
 10
7.445
 11
3.063
 20
88.809
 21
88.809
  0
LINE
  8
0
 10
3.063
 11
3.063
 20
93.809
 21
98.191
  0
LINE
  8
0
 10
3.063
 11
7.445
 20
98.191
 21
98.191
  0
LINE
  8
0
 10
7.445
 11
7.445
 20
98.191
 21
93.809
  0
LINE
  8
0
 10
7.445
 11
3.063
 20
93.809
 21
93.809
  0
LINE
  8
0
 10
3.063
 11
3.063
 20
98.809
 21
103.191
  0
LINE
  8
0
 10
3.063
 11
7.445
 20
103.191
 21
103.191
  0
LINE
  8
0
 10
7.445
 11
7.445
 20
103.191
 21
98.809
  0
LINE
  8
0
 10
7.445
 11
3.063
 20
98.809
 21
98.809
  0
LINE
  8
0
 10
3.063
 11
3.063
 20
103.809
 21
108.191
  0
LINE
  8
0
 10
3.063
 11
7.445
 20
108.191
 21
108.191
  0
LINE
  8
0
 10
7.445
 11
7.445
 20
108.191
 21
103.809
  0
LINE
  8
0
 10
7.445
 11
3.063
 20
103.809
 21
103.809
  0
LINE
  8
0
 10
3.063
 11
3.063
 20
108.809
 21
113.191
  0
LINE
  8
0
 10
3.063
 11
7.445
 20
113.191
 21
113.191
  0
LINE
  8
0
 10
7.445
 11
7.445
 20
113.191
 21
108.809
  0
LINE
  8
0
 10
7.445
 11
3.063
 20
108.809
 21
108.809
  0
LINE
  8
0
 10
3.063
 11
3.063
 20
113.809
 21
118.191
  0
LINE
  8
0
 10
3.063
 11
7.445
 20
118.191
 21
118.191
  0
LINE
  8
0
 10
7.445
 11
7.445
 20
118.191
 21
113.809
  0
LINE
  8
0
 10
7.445
 11
3.063
 20
113.809
 21
113.809
  0
LINE
  8
0
 10
3.063
 11
3.063
 20
118.809
 21
123.191
  0
LINE
  8
0
 10
3.063
 11
7.445
 20
123.191
 21
123.191
  0
LINE
  8
0
 10
7.445
 11
7.445
 20
123.191
 21
118.809
  0
LINE
  8
0
 10
7.445
 11
3.063
 20
118.809
 21
118.809
  0
LINE
  8
0
 10
3.063
 11
3.063
 20
123.809
 21
128.191
  0
LINE
  8
0
 10
3.063
 11
7.445
 20
128.191
 21
128.191
  0
LINE
  8
0
 10
7.445
 11
7.445
 20
128.191
 21
123.809
  0
LINE
  8
0
 10
7.445
 11
3.063
 20
123.809
 21
123.809
  0
LINE
  8
0
 10
3.063
 11
3.063
 20
128.809
 21
133.191
  0
LINE
  8
0
 10
3.063
 11
7.445
 20
133.191
 21
133.191
  0
LINE
  8
0
 10
7.445
 11
7.445
 20
133.191
 21
128.809
  0
LINE
  8
0
 10
7.445
 11
3.063
 20
128.809
 21
128.809
  0
LINE
  8
0
 10
3.063
 11
3.063
 20
133.809
 21
138.191
  0
LINE
  8
0
 10
3.063
 11
7.445
 20
138.191
 21
138.191
  0
LINE
  8
0
 10
7.445
 11
7.445
 20
138.191
 21
133.809
  0
LINE
  8
0
 10
7.445
 11
3.063
 20
133.809
 21
133.809
  0
LINE
  8
0
 10
3.063
 11
3.063
 20
138.809
 21
143.191
  0
LINE
  8
0
 10
3.063
 11
7.445
 20
143.191
 21
143.191
  0
LINE
  8
0
 10
7.445
 11
7.445
 20
143.191
 21
138.809
  0
LINE
  8
0
 10
7.445
 11
3.063
 20
138.809
 21
138.809
  0
LINE
  8
0
 10
3.063
 11
3.063
 20
143.809
 21
148.191
  0
LINE
  8
0
 10
3.063
 11
7.445
 20
148.191
 21
148.191
  0
LINE
  8
0
 10
7.445
 11
7.445
 20
148.191
 21
143.809
  0
LINE
  8
0
 10
7.445
 11
3.063
 20
143.809
 21
143.809
  0
LINE
  8
0
 10
3.063
 11
3.063
 20
148.809
 21
153.191
  0
LINE
  8
0
 10
3.063
 11
7.445
 20
153.191
 21
153.191
  0
LINE
  8
0
 10
7.445
 11
7.445
 20
153.191
 21
148.809
  0
LINE
  8
0
 10
7.445
 11
3.063
 20
148.809
 21
148.809
  0
LINE
  8
0
 10
3.063
 11
3.063
 20
153.809
 21
158.191
  0
LINE
  8
0
 10
3.063
 11
7.445
 20
158.191
 21
158.191
  0
LINE
  8
0
 10
7.445
 11
7.445
 20
158.191
 21
153.809
  0
LINE
  8
0
 10
7.445
 11
3.063
 20
153.809
 21
153.809
  0
LINE
  8
0
 10
3.063
 11
3.063
 20
158.809
 21
163.191
  0
LINE
  8
0
 10
3.063
 11
7.445
 20
163.191
 21
163.191
  0
LINE
  8
0
 10
7.445
 11
7.445
 20
163.191
 21
158.809
  0
LINE
  8
0
 10
7.445
 11
3.063
 20
158.809
 21
158.809
  0
LINE
  8
0
 10
3.063
 11
3.063
 20
163.809
 21
168.191
  0
LINE
  8
0
 10
3.063
 11
7.445
 20
168.191
 21
168.191
  0
LINE
  8
0
 10
7.445
 11
7.445
 20
168.191
 21
163.809
  0
LINE
  8
0
 10
7.445
 11
3.063
 20
163.809
 21
163.809
  0
LINE
  8
0
 10
3.063
 11
3.063
 20
168.809
 21
173.191
  0
LINE
  8
0
 10
3.063
 11
7.445
 20
173.191
 21
173.191
  0
LINE
  8
0
 10
7.445
 11
7.445
 20
173.191
 21
168.809
  0
LINE
  8
0
 10
7.445
 11
3.063
 20
168.809
 21
168.809
  0
LINE
  8
0
 10
3.063
 11
3.063
 20
173.809
 21
178.191
  0
LINE
  8
0
 10
3.063
 11
7.445
 20
178.191
 21
178.191
  0
LINE
  8
0
 10
7.445
 11
7.445
 20
178.191
 21
173.809
  0
LINE
  8
0
 10
7.445
 11
3.063
 20
173.809
 21
173.809
  0
LINE
  8
0
 10
3.063
 11
3.063
 20
178.809
 21
183.191
  0
LINE
  8
0
 10
3.063
 11
7.445
 20
183.191
 21
183.191
  0
LINE
  8
0
 10
7.445
 11
7.445
 20
183.191
 21
178.809
  0
LINE
  8
0
 10
7.445
 11
3.063
 20
178.809
 21
178.809
  0
LINE
  8
0
 10
3.063
 11
3.063
 20
183.809
 21
188.191
  0
LINE
  8
0
 10
3.063
 11
7.445
 20
188.191
 21
188.191
  0
LINE
  8
0
 10
7.445
 11
7.445
 20
188.191
 21
183.809
  0
LINE
  8
0
 10
7.445
 11
3.063
 20
183.809
 21
183.809
  0
LINE
  8
0
 10
3.063
 11
3.063
 20
188.809
 21
193.191
  0
LINE
  8
0
 10
3.063
 11
7.445
 20
193.191
 21
193.191
  0
LINE
  8
0
 10
7.445
 11
7.445
 20
193.191
 21
188.809
  0
LINE
  8
0
 10
7.445
 11
3.063
 20
188.809
 21
188.809
  0
LINE
  8
0
 10
3.063
 11
3.063
 20
193.809
 21
198.191
  0
LINE
  8
0
 10
3.063
 11
7.445
 20
198.191
 21
198.191
  0
LINE
  8
0
 10
7.445
 11
7.445
 20
198.191
 21
193.809
  0
LINE
  8
0
 10
7.445
 11
3.063
 20
193.809
 21
193.809
  0
LINE
  8
0
 10
3.063
 11
3.063
 20
198.809
 21
203.191
  0
LINE
  8
0
 10
3.063
 11
7.445
 20
203.191
 21
203.191
  0
LINE
  8
0
 10
7.445
 11
7.445
 20
203.191
 21
198.809
  0
LINE
  8
0
 10
7.445
 11
3.063
 20
198.809
 21
198.809
  0
LINE
  8
0
 10
3.063
 11
3.063
 20
203.809
 21
208.191
  0
LINE
  8
0
 10
3.063
 11
7.445
 20
208.191
 21
208.191
  0
LINE
  8
0
 10
7.445
 11
7.445
 20
208.191
 21
203.809
  0
LINE
  8
0
 10
7.445
 11
3.063
 20
203.809
 21
203.809
  0
LINE
  8
0
 10
3.063
 11
3.063
 20
208.809
 21
213.191
  0
LINE
  8
0
 10
3.063
 11
7.445
 20
213.191
 21
213.191
  0
LINE
  8
0
 10
7.445
 11
7.445
 20
213.191
 21
208.809
  0
LINE
  8
0
 10
7.445
 11
3.063
 20
208.809
 21
208.809
  0
LINE
  8
0
 10
3.063
 11
3.063
 20
213.809
 21
218.191
  0
LINE
  8
0
 10
3.063
 11
7.445
 20
218.191
 21
218.191
  0
LINE
  8
0
 10
7.445
 11
7.445
 20
218.191
 21
213.809
  0
LINE
  8
0
 10
7.445
 11
3.063
 20
213.809
 21
213.809
  0
LINE
  8
0
 10
3.063
 11
3.063
 20
218.809
 21
223.191
  0
LINE
  8
0
 10
3.063
 11
7.445
 20
223.191
 21
223.191
  0
LINE
  8
0
 10
7.445
 11
7.445
 20
223.191
 21
218.809
  0
LINE
  8
0
 10
7.445
 11
3.063
 20
218.809
 21
218.809
  0
LINE
  8
0
 10
3.063
 11
3.063
 20
223.809
 21
228.191
  0
LINE
  8
0
 10
3.063
 11
7.445
 20
228.191
 21
228.191
  0
LINE
  8
0
 10
7.445
 11
7.445
 20
228.191
 21
223.809
  0
LINE
  8
0
 10
7.445
 11
3.063
 20
223.809
 21
223.809
  0
LINE
  8
0
 10
3.063
 11
3.063
 20
228.809
 21
233.191
  0
LINE
  8
0
 10
3.063
 11
7.445
 20
233.191
 21
233.191
  0
LINE
  8
0
 10
7.445
 11
7.445
 20
233.191
 21
228.809
  0
LINE
  8
0
 10
7.445
 11
3.063
 20
228.809
 21
228.809
  0
LINE
  8
0
 10
3.063
 11
3.063
 20
233.809
 21
238.191
  0
LINE
  8
0
 10
3.063
 11
7.445
 20
238.191
 21
238.191
  0
LINE
  8
0
 10
7.445
 11
7.445
 20
238.191
 21
233.809
  0
LINE
  8
0
 10
7.445
 11
3.063
 20
233.809
 21
233.809
  0
LINE
  8
0
 10
3.063
 11
3.063
 20
238.809
 21
243.191
  0
LINE
  8
0
 10
3.063
 11
7.445
 20
243.191
 21
243.191
  0
LINE
  8
0
 10
7.445
 11
7.445
 20
243.191
 21
238.809
  0
LINE
  8
0
 10
7.445
 11
3.063
 20
238.809
 21
238.809
  0
LINE
  8
0
 10
3.063
 11
3.063
 20
243.809
 21
248.191
  0
LINE
  8
0
 10
3.063
 11
7.445
 20
248.191
 21
248.191
  0
LINE
  8
0
 10
7.445
 11
7.445
 20
248.191
 21
243.809
  0
LINE
  8
0
 10
7.445
 11
3.063
 20
243.809
 21
243.809
  0
LINE
  8
0
 10
3.063
 11
3.063
 20
248.809
 21
253.191
  0
LINE
  8
0
 10
3.063
 11
7.445
 20
253.191
 21
253.191
  0
LINE
  8
0
 10
7.445
 11
7.445
 20
253.191
 21
248.809
  0
LINE
  8
0
 10
7.445
 11
3.063
 20
248.809
 21
248.809
  0
LINE
  8
0
 10
3.063
 11
3.063
 20
253.809
 21
258.191
  0
LINE
  8
0
 10
3.063
 11
7.445
 20
258.191
 21
258.191
  0
LINE
  8
0
 10
7.445
 11
7.445
 20
258.191
 21
253.809
  0
LINE
  8
0
 10
7.445
 11
3.063
 20
253.809
 21
253.809
  0
LINE
  8
0
 10
3.063
 11
3.063
 20
258.809
 21
263.191
  0
LINE
  8
0
 10
3.063
 11
7.445
 20
263.191
 21
263.191
  0
LINE
  8
0
 10
7.445
 11
7.445
 20
263.191
 21
258.809
  0
LINE
  8
0
 10
7.445
 11
3.063
 20
258.809
 21
258.809
  0
LINE
  8
0
 10
3.063
 11
3.063
 20
263.809
 21
268.191
  0
LINE
  8
0
 10
3.063
 11
7.445
 20
268.191
 21
268.191
  0
LINE
  8
0
 10
7.445
 11
7.445
 20
268.191
 21
263.809
  0
LINE
  8
0
 10
7.445
 11
3.063
 20
263.809
 21
263.809
  0
LINE
  8
0
 10
3.063
 11
3.063
 20
268.809
 21
273.191
  0
LINE
  8
0
 10
3.063
 11
7.445
 20
273.191
 21
273.191
  0
LINE
  8
0
 10
7.445
 11
7.445
 20
273.191
 21
268.809
  0
LINE
  8
0
 10
7.445
 11
3.063
 20
268.809
 21
268.809
  0
LINE
  8
0
 10
3.063
 11
3.063
 20
273.809
 21
278.191
  0
LINE
  8
0
 10
3.063
 11
7.445
 20
278.191
 21
278.191
  0
LINE
  8
0
 10
7.445
 11
7.445
 20
278.191
 21
273.809
  0
LINE
  8
0
 10
7.445
 11
3.063
 20
273.809
 21
273.809
  0
LINE
  8
0
 10
8.063
 11
8.063
 20
21.309
 21
25.691
  0
LINE
  8
0
 10
8.063
 11
12.445
 20
25.691
 21
25.691
  0
LINE
  8
0
 10
12.445
 11
12.445
 20
25.691
 21
21.309
  0
LINE
  8
0
 10
12.445
 11
8.063
 20
21.309
 21
21.309
  0
LINE
  8
0
 10
8.063
 11
8.063
 20
26.309
 21
30.691
  0
LINE
  8
0
 10
8.063
 11
12.445
 20
30.691
 21
30.691
  0
LINE
  8
0
 10
12.445
 11
12.445
 20
30.691
 21
26.309
  0
LINE
  8
0
 10
12.445
 11
8.063
 20
26.309
 21
26.309
  0
LINE
  8
0
 10
8.063
 11
8.063
 20
31.309
 21
35.691
  0
LINE
  8
0
 10
8.063
 11
12.445
 20
35.691
 21
35.691
  0
LINE
  8
0
 10
12.445
 11
12.445
 20
35.691
 21
31.309
  0
LINE
  8
0
 10
12.445
 11
8.063
 20
31.309
 21
31.309
  0
LINE
  8
0
 10
8.063
 11
8.063
 20
36.309
 21
40.691
  0
LINE
  8
0
 10
8.063
 11
12.445
 20
40.691
 21
40.691
  0
LINE
  8
0
 10
12.445
 11
12.445
 20
40.691
 21
36.309
  0
LINE
  8
0
 10
12.445
 11
8.063
 20
36.309
 21
36.309
  0
LINE
  8
0
 10
8.063
 11
8.063
 20
41.309
 21
45.691
  0
LINE
  8
0
 10
8.063
 11
12.445
 20
45.691
 21
45.691
  0
LINE
  8
0
 10
12.445
 11
12.445
 20
45.691
 21
41.309
  0
LINE
  8
0
 10
12.445
 11
8.063
 20
41.309
 21
41.309
  0
LINE
  8
0
 10
8.063
 11
8.063
 20
46.309
 21
50.691
  0
LINE
  8
0
 10
8.063
 11
12.445
 20
50.691
 21
50.691
  0
LINE
  8
0
 10
12.445
 11
12.445
 20
50.691
 21
46.309
  0
LINE
  8
0
 10
12.445
 11
8.063
 20
46.309
 21
46.309
  0
LINE
  8
0
 10
8.063
 11
8.063
 20
51.309
 21
55.691
  0
LINE
  8
0
 10
8.063
 11
12.445
 20
55.691
 21
55.691
  0
LINE
  8
0
 10
12.445
 11
12.445
 20
55.691
 21
51.309
  0
LINE
  8
0
 10
12.445
 11
8.063
 20
51.309
 21
51.309
  0
LINE
  8
0
 10
8.063
 11
8.063
 20
56.309
 21
60.691
  0
LINE
  8
0
 10
8.063
 11
12.445
 20
60.691
 21
60.691
  0
LINE
  8
0
 10
12.445
 11
12.445
 20
60.691
 21
56.309
  0
LINE
  8
0
 10
12.445
 11
8.063
 20
56.309
 21
56.309
  0
LINE
  8
0
 10
8.063
 11
8.063
 20
61.309
 21
65.691
  0
LINE
  8
0
 10
8.063
 11
12.445
 20
65.691
 21
65.691
  0
LINE
  8
0
 10
12.445
 11
12.445
 20
65.691
 21
61.309
  0
LINE
  8
0
 10
12.445
 11
8.063
 20
61.309
 21
61.309
  0
LINE
  8
0
 10
8.063
 11
8.063
 20
66.309
 21
70.691
  0
LINE
  8
0
 10
8.063
 11
12.445
 20
70.691
 21
70.691
  0
LINE
  8
0
 10
12.445
 11
12.445
 20
70.691
 21
66.309
  0
LINE
  8
0
 10
12.445
 11
8.063
 20
66.309
 21
66.309
  0
LINE
  8
0
 10
8.063
 11
8.063
 20
71.309
 21
75.691
  0
LINE
  8
0
 10
8.063
 11
12.445
 20
75.691
 21
75.691
  0
LINE
  8
0
 10
12.445
 11
12.445
 20
75.691
 21
71.309
  0
LINE
  8
0
 10
12.445
 11
8.063
 20
71.309
 21
71.309
  0
LINE
  8
0
 10
8.063
 11
8.063
 20
76.309
 21
80.691
  0
LINE
  8
0
 10
8.063
 11
12.445
 20
80.691
 21
80.691
  0
LINE
  8
0
 10
12.445
 11
12.445
 20
80.691
 21
76.309
  0
LINE
  8
0
 10
12.445
 11
8.063
 20
76.309
 21
76.309
  0
LINE
  8
0
 10
8.063
 11
8.063
 20
81.309
 21
85.691
  0
LINE
  8
0
 10
8.063
 11
12.445
 20
85.691
 21
85.691
  0
LINE
  8
0
 10
12.445
 11
12.445
 20
85.691
 21
81.309
  0
LINE
  8
0
 10
12.445
 11
8.063
 20
81.309
 21
81.309
  0
LINE
  8
0
 10
8.063
 11
8.063
 20
86.309
 21
90.691
  0
LINE
  8
0
 10
8.063
 11
12.445
 20
90.691
 21
90.691
  0
LINE
  8
0
 10
12.445
 11
12.445
 20
90.691
 21
86.309
  0
LINE
  8
0
 10
12.445
 11
8.063
 20
86.309
 21
86.309
  0
LINE
  8
0
 10
8.063
 11
8.063
 20
91.309
 21
95.691
  0
LINE
  8
0
 10
8.063
 11
12.445
 20
95.691
 21
95.691
  0
LINE
  8
0
 10
12.445
 11
12.445
 20
95.691
 21
91.309
  0
LINE
  8
0
 10
12.445
 11
8.063
 20
91.309
 21
91.309
  0
LINE
  8
0
 10
8.063
 11
8.063
 20
96.309
 21
100.691
  0
LINE
  8
0
 10
8.063
 11
12.445
 20
100.691
 21
100.691
  0
LINE
  8
0
 10
12.445
 11
12.445
 20
100.691
 21
96.309
  0
LINE
  8
0
 10
12.445
 11
8.063
 20
96.309
 21
96.309
  0
LINE
  8
0
 10
8.063
 11
8.063
 20
101.309
 21
105.691
  0
LINE
  8
0
 10
8.063
 11
12.445
 20
105.691
 21
105.691
  0
LINE
  8
0
 10
12.445
 11
12.445
 20
105.691
 21
101.309
  0
LINE
  8
0
 10
12.445
 11
8.063
 20
101.309
 21
101.309
  0
LINE
  8
0
 10
8.063
 11
8.063
 20
106.309
 21
110.691
  0
LINE
  8
0
 10
8.063
 11
12.445
 20
110.691
 21
110.691
  0
LINE
  8
0
 10
12.445
 11
12.445
 20
110.691
 21
106.309
  0
LINE
  8
0
 10
12.445
 11
8.063
 20
106.309
 21
106.309
  0
LINE
  8
0
 10
8.063
 11
8.063
 20
111.309
 21
115.691
  0
LINE
  8
0
 10
8.063
 11
12.445
 20
115.691
 21
115.691
  0
LINE
  8
0
 10
12.445
 11
12.445
 20
115.691
 21
111.309
  0
LINE
  8
0
 10
12.445
 11
8.063
 20
111.309
 21
111.309
  0
LINE
  8
0
 10
8.063
 11
8.063
 20
116.309
 21
120.691
  0
LINE
  8
0
 10
8.063
 11
12.445
 20
120.691
 21
120.691
  0
LINE
  8
0
 10
12.445
 11
12.445
 20
120.691
 21
116.309
  0
LINE
  8
0
 10
12.445
 11
8.063
 20
116.309
 21
116.309
  0
LINE
  8
0
 10
8.063
 11
8.063
 20
121.309
 21
125.691
  0
LINE
  8
0
 10
8.063
 11
12.445
 20
125.691
 21
125.691
  0
LINE
  8
0
 10
12.445
 11
12.445
 20
125.691
 21
121.309
  0
LINE
  8
0
 10
12.445
 11
8.063
 20
121.309
 21
121.309
  0
LINE
  8
0
 10
8.063
 11
8.063
 20
126.309
 21
130.691
  0
LINE
  8
0
 10
8.063
 11
12.445
 20
130.691
 21
130.691
  0
LINE
  8
0
 10
12.445
 11
12.445
 20
130.691
 21
126.309
  0
LINE
  8
0
 10
12.445
 11
8.063
 20
126.309
 21
126.309
  0
LINE
  8
0
 10
8.063
 11
8.063
 20
131.309
 21
135.691
  0
LINE
  8
0
 10
8.063
 11
12.445
 20
135.691
 21
135.691
  0
LINE
  8
0
 10
12.445
 11
12.445
 20
135.691
 21
131.309
  0
LINE
  8
0
 10
12.445
 11
8.063
 20
131.309
 21
131.309
  0
LINE
  8
0
 10
8.063
 11
8.063
 20
136.309
 21
140.691
  0
LINE
  8
0
 10
8.063
 11
12.445
 20
140.691
 21
140.691
  0
LINE
  8
0
 10
12.445
 11
12.445
 20
140.691
 21
136.309
  0
LINE
  8
0
 10
12.445
 11
8.063
 20
136.309
 21
136.309
  0
LINE
  8
0
 10
8.063
 11
8.063
 20
141.309
 21
145.691
  0
LINE
  8
0
 10
8.063
 11
12.445
 20
145.691
 21
145.691
  0
LINE
  8
0
 10
12.445
 11
12.445
 20
145.691
 21
141.309
  0
LINE
  8
0
 10
12.445
 11
8.063
 20
141.309
 21
141.309
  0
LINE
  8
0
 10
8.063
 11
8.063
 20
146.309
 21
150.691
  0
LINE
  8
0
 10
8.063
 11
12.445
 20
150.691
 21
150.691
  0
LINE
  8
0
 10
12.445
 11
12.445
 20
150.691
 21
146.309
  0
LINE
  8
0
 10
12.445
 11
8.063
 20
146.309
 21
146.309
  0
LINE
  8
0
 10
8.063
 11
8.063
 20
151.309
 21
155.691
  0
LINE
  8
0
 10
8.063
 11
12.445
 20
155.691
 21
155.691
  0
LINE
  8
0
 10
12.445
 11
12.445
 20
155.691
 21
151.309
  0
LINE
  8
0
 10
12.445
 11
8.063
 20
151.309
 21
151.309
  0
LINE
  8
0
 10
8.063
 11
8.063
 20
156.309
 21
160.691
  0
LINE
  8
0
 10
8.063
 11
12.445
 20
160.691
 21
160.691
  0
LINE
  8
0
 10
12.445
 11
12.445
 20
160.691
 21
156.309
  0
LINE
  8
0
 10
12.445
 11
8.063
 20
156.309
 21
156.309
  0
LINE
  8
0
 10
8.063
 11
8.063
 20
161.309
 21
165.691
  0
LINE
  8
0
 10
8.063
 11
12.445
 20
165.691
 21
165.691
  0
LINE
  8
0
 10
12.445
 11
12.445
 20
165.691
 21
161.309
  0
LINE
  8
0
 10
12.445
 11
8.063
 20
161.309
 21
161.309
  0
LINE
  8
0
 10
8.063
 11
8.063
 20
166.309
 21
170.691
  0
LINE
  8
0
 10
8.063
 11
12.445
 20
170.691
 21
170.691
  0
LINE
  8
0
 10
12.445
 11
12.445
 20
170.691
 21
166.309
  0
LINE
  8
0
 10
12.445
 11
8.063
 20
166.309
 21
166.309
  0
LINE
  8
0
 10
8.063
 11
8.063
 20
171.309
 21
175.691
  0
LINE
  8
0
 10
8.063
 11
12.445
 20
175.691
 21
175.691
  0
LINE
  8
0
 10
12.445
 11
12.445
 20
175.691
 21
171.309
  0
LINE
  8
0
 10
12.445
 11
8.063
 20
171.309
 21
171.309
  0
LINE
  8
0
 10
8.063
 11
8.063
 20
176.309
 21
180.691
  0
LINE
  8
0
 10
8.063
 11
12.445
 20
180.691
 21
180.691
  0
LINE
  8
0
 10
12.445
 11
12.445
 20
180.691
 21
176.309
  0
LINE
  8
0
 10
12.445
 11
8.063
 20
176.309
 21
176.309
  0
LINE
  8
0
 10
8.063
 11
8.063
 20
181.309
 21
185.691
  0
LINE
  8
0
 10
8.063
 11
12.445
 20
185.691
 21
185.691
  0
LINE
  8
0
 10
12.445
 11
12.445
 20
185.691
 21
181.309
  0
LINE
  8
0
 10
12.445
 11
8.063
 20
181.309
 21
181.309
  0
LINE
  8
0
 10
8.063
 11
8.063
 20
186.309
 21
190.691
  0
LINE
  8
0
 10
8.063
 11
12.445
 20
190.691
 21
190.691
  0
LINE
  8
0
 10
12.445
 11
12.445
 20
190.691
 21
186.309
  0
LINE
  8
0
 10
12.445
 11
8.063
 20
186.309
 21
186.309
  0
LINE
  8
0
 10
8.063
 11
8.063
 20
191.309
 21
195.691
  0
LINE
  8
0
 10
8.063
 11
12.445
 20
195.691
 21
195.691
  0
LINE
  8
0
 10
12.445
 11
12.445
 20
195.691
 21
191.309
  0
LINE
  8
0
 10
12.445
 11
8.063
 20
191.309
 21
191.309
  0
LINE
  8
0
 10
8.063
 11
8.063
 20
196.309
 21
200.691
  0
LINE
  8
0
 10
8.063
 11
12.445
 20
200.691
 21
200.691
  0
LINE
  8
0
 10
12.445
 11
12.445
 20
200.691
 21
196.309
  0
LINE
  8
0
 10
12.445
 11
8.063
 20
196.309
 21
196.309
  0
LINE
  8
0
 10
8.063
 11
8.063
 20
201.309
 21
205.691
  0
LINE
  8
0
 10
8.063
 11
12.445
 20
205.691
 21
205.691
  0
LINE
  8
0
 10
12.445
 11
12.445
 20
205.691
 21
201.309
  0
LINE
  8
0
 10
12.445
 11
8.063
 20
201.309
 21
201.309
  0
LINE
  8
0
 10
8.063
 11
8.063
 20
206.309
 21
210.691
  0
LINE
  8
0
 10
8.063
 11
12.445
 20
210.691
 21
210.691
  0
LINE
  8
0
 10
12.445
 11
12.445
 20
210.691
 21
206.309
  0
LINE
  8
0
 10
12.445
 11
8.063
 20
206.309
 21
206.309
  0
LINE
  8
0
 10
8.063
 11
8.063
 20
211.309
 21
215.691
  0
LINE
  8
0
 10
8.063
 11
12.445
 20
215.691
 21
215.691
  0
LINE
  8
0
 10
12.445
 11
12.445
 20
215.691
 21
211.309
  0
LINE
  8
0
 10
12.445
 11
8.063
 20
211.309
 21
211.309
  0
LINE
  8
0
 10
8.063
 11
8.063
 20
216.309
 21
220.691
  0
LINE
  8
0
 10
8.063
 11
12.445
 20
220.691
 21
220.691
  0
LINE
  8
0
 10
12.445
 11
12.445
 20
220.691
 21
216.309
  0
LINE
  8
0
 10
12.445
 11
8.063
 20
216.309
 21
216.309
  0
LINE
  8
0
 10
8.063
 11
8.063
 20
221.309
 21
225.691
  0
LINE
  8
0
 10
8.063
 11
12.445
 20
225.691
 21
225.691
  0
LINE
  8
0
 10
12.445
 11
12.445
 20
225.691
 21
221.309
  0
LINE
  8
0
 10
12.445
 11
8.063
 20
221.309
 21
221.309
  0
LINE
  8
0
 10
8.063
 11
8.063
 20
226.309
 21
230.691
  0
LINE
  8
0
 10
8.063
 11
12.445
 20
230.691
 21
230.691
  0
LINE
  8
0
 10
12.445
 11
12.445
 20
230.691
 21
226.309
  0
LINE
  8
0
 10
12.445
 11
8.063
 20
226.309
 21
226.309
  0
LINE
  8
0
 10
8.063
 11
8.063
 20
231.309
 21
235.691
  0
LINE
  8
0
 10
8.063
 11
12.445
 20
235.691
 21
235.691
  0
LINE
  8
0
 10
12.445
 11
12.445
 20
235.691
 21
231.309
  0
LINE
  8
0
 10
12.445
 11
8.063
 20
231.309
 21
231.309
  0
LINE
  8
0
 10
8.063
 11
8.063
 20
236.309
 21
240.691
  0
LINE
  8
0
 10
8.063
 11
12.445
 20
240.691
 21
240.691
  0
LINE
  8
0
 10
12.445
 11
12.445
 20
240.691
 21
236.309
  0
LINE
  8
0
 10
12.445
 11
8.063
 20
236.309
 21
236.309
  0
LINE
  8
0
 10
8.063
 11
8.063
 20
241.309
 21
245.691
  0
LINE
  8
0
 10
8.063
 11
12.445
 20
245.691
 21
245.691
  0
LINE
  8
0
 10
12.445
 11
12.445
 20
245.691
 21
241.309
  0
LINE
  8
0
 10
12.445
 11
8.063
 20
241.309
 21
241.309
  0
LINE
  8
0
 10
8.063
 11
8.063
 20
246.309
 21
250.691
  0
LINE
  8
0
 10
8.063
 11
12.445
 20
250.691
 21
250.691
  0
LINE
  8
0
 10
12.445
 11
12.445
 20
250.691
 21
246.309
  0
LINE
  8
0
 10
12.445
 11
8.063
 20
246.309
 21
246.309
  0
LINE
  8
0
 10
8.063
 11
8.063
 20
251.309
 21
255.691
  0
LINE
  8
0
 10
8.063
 11
12.445
 20
255.691
 21
255.691
  0
LINE
  8
0
 10
12.445
 11
12.445
 20
255.691
 21
251.309
  0
LINE
  8
0
 10
12.445
 11
8.063
 20
251.309
 21
251.309
  0
LINE
  8
0
 10
8.063
 11
8.063
 20
256.309
 21
260.691
  0
LINE
  8
0
 10
8.063
 11
12.445
 20
260.691
 21
260.691
  0
LINE
  8
0
 10
12.445
 11
12.445
 20
260.691
 21
256.309
  0
LINE
  8
0
 10
12.445
 11
8.063
 20
256.309
 21
256.309
  0
LINE
  8
0
 10
8.063
 11
8.063
 20
261.309
 21
265.691
  0
LINE
  8
0
 10
8.063
 11
12.445
 20
265.691
 21
265.691
  0
LINE
  8
0
 10
12.445
 11
12.445
 20
265.691
 21
261.309
  0
LINE
  8
0
 10
12.445
 11
8.063
 20
261.309
 21
261.309
  0
LINE
  8
0
 10
8.063
 11
8.063
 20
266.309
 21
270.691
  0
LINE
  8
0
 10
8.063
 11
12.445
 20
270.691
 21
270.691
  0
LINE
  8
0
 10
12.445
 11
12.445
 20
270.691
 21
266.309
  0
LINE
  8
0
 10
12.445
 11
8.063
 20
266.309
 21
266.309
  0
LINE
  8
0
 10
8.063
 11
8.063
 20
271.309
 21
275.691
  0
LINE
  8
0
 10
8.063
 11
12.445
 20
275.691
 21
275.691
  0
LINE
  8
0
 10
12.445
 11
12.445
 20
275.691
 21
271.309
  0
LINE
  8
0
 10
12.445
 11
8.063
 20
271.309
 21
271.309
  0
LINE
  8
0
 10
8.063
 11
8.063
 20
276.309
 21
280.691
  0
LINE
  8
0
 10
8.063
 11
12.445
 20
280.691
 21
280.691
  0
LINE
  8
0
 10
12.445
 11
12.445
 20
280.691
 21
276.309
  0
LINE
  8
0
 10
12.445
 11
8.063
 20
276.309
 21
276.309
  0
LINE
  8
0
 10
23.214
 11
23.214
 20
22.97
 21
26.099
  0
LINE
  8
0
 10
23.214
 11
26.344
 20
26.099
 21
26.099
  0
LINE
  8
0
 10
26.344
 11
26.344
 20
26.099
 21
22.97
  0
LINE
  8
0
 10
26.344
 11
23.214
 20
22.97
 21
22.97
  0
LINE
  8
0
 10
23.214
 11
23.214
 20
144.435
 21
147.565
  0
LINE
  8
0
 10
23.214
 11
26.344
 20
147.565
 21
147.565
  0
LINE
  8
0
 10
26.344
 11
26.344
 20
147.565
 21
144.435
  0
LINE
  8
0
 10
26.344
 11
23.214
 20
144.435
 21
144.435
  0
LINE
  8
0
 10
23.214
 11
23.214
 20
265.901
 21
269.03
  0
LINE
  8
0
 10
23.214
 11
26.344
 20
269.03
 21
269.03
  0
LINE
  8
0
 10
26.344
 11
26.344
 20
269.03
 21
265.901
  0
LINE
  8
0
 10
26.344
 11
23.214
 20
265.901
 21
265.901
  0
LINE
  8
0
 10
34.304
 11
34.304
 20
16
 21
276
  0
LINE
  8
0
 10
34.304
 11
54.304
 20
276
 21
276
  0
LINE
  8
0
 10
54.304
 11
54.304
 20
276
 21
16
  0
LINE
  8
0
 10
54.304
 11
34.304
 20
16
 21
16
  0
LINE
  8
0
 10
35.32
 11
35.32
 20
16.127
 21
25.492
  0
LINE
  8
0
 10
35.32
 11
53.288
 20
25.492
 21
25.492
  0
LINE
  8
0
 10
53.288
 11
53.288
 20
25.492
 21
16.127
  0
LINE
  8
0
 10
53.288
 11
35.32
 20
16.127
 21
16.127
  0
LINE
  8
0
 10
35.32
 11
35.32
 20
266.508
 21
275.873
  0
LINE
  8
0
 10
35.32
 11
53.288
 20
275.873
 21
275.873
  0
LINE
  8
0
 10
53.288
 11
53.288
 20
275.873
 21
266.508
  0
LINE
  8
0
 10
53.288
 11
35.32
 20
266.508
 21
266.508
  0
LINE
  8
0
 10
62.264
 11
62.264
 20
22.97
 21
26.099
  0
LINE
  8
0
 10
62.264
 11
65.394
 20
26.099
 21
26.099
  0
LINE
  8
0
 10
65.394
 11
65.394
 20
26.099
 21
22.97
  0
LINE
  8
0
 10
65.394
 11
62.264
 20
22.97
 21
22.97
  0
LINE
  8
0
 10
62.264
 11
62.264
 20
109.435
 21
112.565
  0
LINE
  8
0
 10
62.264
 11
65.394
 20
112.565
 21
112.565
  0
LINE
  8
0
 10
65.394
 11
65.394
 20
112.565
 21
109.435
  0
LINE
  8
0
 10
65.394
 11
62.264
 20
109.435
 21
109.435
  0
LINE
  8
0
 10
62.264
 11
62.264
 20
144.435
 21
147.565
  0
LINE
  8
0
 10
62.264
 11
65.394
 20
147.565
 21
147.565
  0
LINE
  8
0
 10
65.394
 11
65.394
 20
147.565
 21
144.435
  0
LINE
  8
0
 10
65.394
 11
62.264
 20
144.435
 21
144.435
  0
LINE
  8
0
 10
62.264
 11
62.264
 20
265.901
 21
269.03
  0
LINE
  8
0
 10
62.264
 11
65.394
 20
269.03
 21
269.03
  0
LINE
  8
0
 10
65.394
 11
65.394
 20
269.03
 21
265.901
  0
LINE
  8
0
 10
65.394
 11
62.264
 20
265.901
 21
265.901
  0
LINE
  8
0
 10
86.579
 11
86.579
 20
121.75
 21
135.25
  0
LINE
  8
0
 10
86.579
 11
100.079
 20
135.25
 21
135.25
  0
LINE
  8
0
 10
100.079
 11
100.079
 20
135.25
 21
121.75
  0
LINE
  8
0
 10
100.079
 11
86.579
 20
121.75
 21
121.75
  0
LINE
  8
0
 10
97.264
 11
97.264
 20
109.435
 21
112.565
  0
LINE
  8
0
 10
97.264
 11
100.394
 20
112.565
 21
112.565
  0
LINE
  8
0
 10
100.394
 11
100.394
 20
112.565
 21
109.435
  0
LINE
  8
0
 10
100.394
 11
97.264
 20
109.435
 21
109.435
  0
LINE
  8
0
 10
97.264
 11
97.264
 20
144.435
 21
147.565
  0
LINE
  8
0
 10
97.264
 11
100.394
 20
147.565
 21
147.565
  0
LINE
  8
0
 10
100.394
 11
100.394
 20
147.565
 21
144.435
  0
LINE
  8
0
 10
100.394
 11
97.264
 20
144.435
 21
144.435
  0
LINE
  8
0
 10
106.746
 11
106.746
 20
68
 21
100.032
  0
LINE
  8
0
 10
106.746
 11
121.762
 20
100.032
 21
100.032
  0
LINE
  8
0
 10
121.762
 11
121.762
 20
100.032
 21
68
  0
LINE
  8
0
 10
121.762
 11
106.746
 20
68
 21
68
  0
LINE
  8
0
 10
106.746
 11
106.746
 20
172
 21
204.032
  0
LINE
  8
0
 10
106.746
 11
121.762
 20
204.032
 21
204.032
  0
LINE
  8
0
 10
121.762
 11
121.762
 20
204.032
 21
172
  0
LINE
  8
0
 10
121.762
 11
106.746
 20
172
 21
172
  0
LINE
  8
0
 10
106.873
 11
106.873
 20
69.016
 21
99.016
  0
LINE
  8
0
 10
106.873
 11
113.365
 20
99.016
 21
99.016
  0
LINE
  8
0
 10
113.365
 11
113.365
 20
99.016
 21
69.016
  0
LINE
  8
0
 10
113.365
 11
106.873
 20
69.016
 21
69.016
  0
LINE
  8
0
 10
106.873
 11
106.873
 20
173.016
 21
203.016
  0
LINE
  8
0
 10
106.873
 11
113.365
 20
203.016
 21
203.016
  0
LINE
  8
0
 10
113.365
 11
113.365
 20
203.016
 21
173.016
  0
LINE
  8
0
 10
113.365
 11
106.873
 20
173.016
 21
173.016
  0
LINE
  8
0
 10
115.143
 11
115.143
 20
69.016
 21
99.016
  0
LINE
  8
0
 10
115.143
 11
121.635
 20
99.016
 21
99.016
  0
LINE
  8
0
 10
121.635
 11
121.635
 20
99.016
 21
69.016
  0
LINE
  8
0
 10
121.635
 11
115.143
 20
69.016
 21
69.016
  0
LINE
  8
0
 10
115.143
 11
115.143
 20
173.016
 21
203.016
  0
LINE
  8
0
 10
115.143
 11
121.635
 20
203.016
 21
203.016
  0
LINE
  8
0
 10
121.635
 11
121.635
 20
203.016
 21
173.016
  0
LINE
  8
0
 10
121.635
 11
115.143
 20
173.016
 21
173.016
  0
LINE
  8
0
 10
170.381
 11
170.381
 20
16
 21
275.492
  0
LINE
  8
0
 10
170.381
 11
184.523
 20
275.492
 21
275.492
  0
LINE
  8
0
 10
184.523
 11
184.523
 20
275.492
 21
16
  0
LINE
  8
0
 10
184.523
 11
170.381
 20
16
 21
16
  0
LINE
  8
0
 10
214.95
 11
214.95
 20
1.016
 21
258.984
  0
LINE
  8
0
 10
214.95
 11
235.016
 20
258.984
 21
258.984
  0
LINE
  8
0
 10
235.016
 11
235.016
 20
258.984
 21
1.016
  0
LINE
  8
0
 10
235.016
 11
214.95
 20
1.016
 21
1.016
  0
LINE
  8
0
 10
222.91
 11
222.91
 20
6.97
 21
10.099
  0
LINE
  8
0
 10
222.91
 11
226.04
 20
10.099
 21
10.099
  0
LINE
  8
0
 10
226.04
 11
226.04
 20
10.099
 21
6.97
  0
LINE
  8
0
 10
226.04
 11
222.91
 20
6.97
 21
6.97
  0
LINE
  8
0
 10
222.91
 11
222.91
 20
128.435
 21
131.565
  0
LINE
  8
0
 10
222.91
 11
226.04
 20
131.565
 21
131.565
  0
LINE
  8
0
 10
226.04
 11
226.04
 20
131.565
 21
128.435
  0
LINE
  8
0
 10
226.04
 11
222.91
 20
128.435
 21
128.435
  0
LINE
  8
0
 10
222.91
 11
222.91
 20
249.901
 21
253.03
  0
LINE
  8
0
 10
222.91
 11
226.04
 20
253.03
 21
253.03
  0
LINE
  8
0
 10
226.04
 11
226.04
 20
253.03
 21
249.901
  0
LINE
  8
0
 10
226.04
 11
222.91
 20
249.901
 21
249.901
  0
LINE
  8
0
 10
235.143
 11
235.143
 20
1.016
 21
258.984
  0
LINE
  8
0
 10
235.143
 11
237.327
 20
258.984
 21
258.984
  0
LINE
  8
0
 10
237.327
 11
237.327
 20
258.984
 21
1.016
  0
LINE
  8
0
 10
237.327
 11
235.143
 20
1.016
 21
1.016
  0
LINE
  8
0
 10
237.454
 11
237.454
 20
1.016
 21
258.984
  0
LINE
  8
0
 10
237.454
 11
265.678
 20
258.984
 21
258.984
  0
LINE
  8
0
 10
265.678
 11
265.678
 20
258.984
 21
1.016
  0
LINE
  8
0
 10
265.678
 11
237.454
 20
1.016
 21
1.016
  0
LINE
  8
0
 10
265.805
 11
265.805
 20
1.016
 21
258.984
  0
LINE
  8
0
 10
265.805
 11
267.99
 20
258.984
 21
258.984
  0
LINE
  8
0
 10
267.99
 11
267.99
 20
258.984
 21
1.016
  0
LINE
  8
0
 10
267.99
 11
265.805
 20
1.016
 21
1.016
  0
LINE
  8
0
 10
268.117
 11
268.117
 20
1.016
 21
258.984
  0
LINE
  8
0
 10
268.117
 11
288.183
 20
258.984
 21
258.984
  0
LINE
  8
0
 10
288.183
 11
288.183
 20
258.984
 21
1.016
  0
LINE
  8
0
 10
288.183
 11
268.117
 20
1.016
 21
1.016
  0
LINE
  8
0
 10
277.093
 11
277.093
 20
6.97
 21
10.099
  0
LINE
  8
0
 10
277.093
 11
280.223
 20
10.099
 21
10.099
  0
LINE
  8
0
 10
280.223
 11
280.223
 20
10.099
 21
6.97
  0
LINE
  8
0
 10
280.223
 11
277.093
 20
6.97
 21
6.97
  0
LINE
  8
0
 10
277.093
 11
277.093
 20
128.435
 21
131.565
  0
LINE
  8
0
 10
277.093
 11
280.223
 20
131.565
 21
131.565
  0
LINE
  8
0
 10
280.223
 11
280.223
 20
131.565
 21
128.435
  0
LINE
  8
0
 10
280.223
 11
277.093
 20
128.435
 21
128.435
  0
LINE
  8
0
 10
277.093
 11
277.093
 20
249.901
 21
253.03
  0
LINE
  8
0
 10
277.093
 11
280.223
 20
253.03
 21
253.03
  0
LINE
  8
0
 10
280.223
 11
280.223
 20
253.03
 21
249.901
  0
LINE
  8
0
 10
280.223
 11
277.093
 20
249.901
 21
249.901
  0
LINE
  8
0
 10
295
 11
295
 20
0
 21
260
  0
LINE
  8
0
 10
295
 11
310.05
 20
260
 21
260
  0
LINE
  8
0
 10
310.05
 11
310.05
 20
260
 21
0
  0
LINE
  8
0
 10
310.05
 11
295
 20
0
 21
0
  0
LINE
  8
0
 10
302.96
 11
302.96
 20
6.97
 21
10.099
  0
LINE
  8
0
 10
302.96
 11
306.09
 20
10.099
 21
10.099
  0
LINE
  8
0
 10
306.09
 11
306.09
 20
10.099
 21
6.97
  0
LINE
  8
0
 10
306.09
 11
302.96
 20
6.97
 21
6.97
  0
LINE
  8
0
 10
302.96
 11
302.96
 20
128.435
 21
131.565
  0
LINE
  8
0
 10
302.96
 11
306.09
 20
131.565
 21
131.565
  0
LINE
  8
0
 10
306.09
 11
306.09
 20
131.565
 21
128.435
  0
LINE
  8
0
 10
306.09
 11
302.96
 20
128.435
 21
128.435
  0
LINE
  8
0
 10
302.96
 11
302.96
 20
249.901
 21
253.03
  0
LINE
  8
0
 10
302.96
 11
306.09
 20
253.03
 21
253.03
  0
LINE
  8
0
 10
306.09
 11
306.09
 20
253.03
 21
249.901
  0
LINE
  8
0
 10
306.09
 11
302.96
 20
249.901
 21
249.901
  0
LINE
  8
0
 10
310.177
 11
310.177
 20
0
 21
260
  0
LINE
  8
0
 10
310.177
 11
323.236
 20
260
 21
260
  0
LINE
  8
0
 10
323.236
 11
323.236
 20
260
 21
0
  0
LINE
  8
0
 10
323.236
 11
310.177
 20
0
 21
0
  0
LINE
  8
0
 10
323.363
 11
323.363
 20
0
 21
260
  0
LINE
  8
0
 10
323.363
 11
338.084
 20
260
 21
260
  0
LINE
  8
0
 10
338.084
 11
338.084
 20
260
 21
0
  0
LINE
  8
0
 10
338.084
 11
323.363
 20
0
 21
0
  0
LINE
  8
0
 10
338.211
 11
338.211
 20
0
 21
260
  0
LINE
  8
0
 10
338.211
 11
351.27
 20
260
 21
260
  0
LINE
  8
0
 10
351.27
 11
351.27
 20
260
 21
0
  0
LINE
  8
0
 10
351.27
 11
338.211
 20
0
 21
0
  0
LINE
  8
0
 10
351.397
 11
351.397
 20
0
 21
260
  0
LINE
  8
0
 10
351.397
 11
366.447
 20
260
 21
260
  0
LINE
  8
0
 10
366.447
 11
366.447
 20
260
 21
0
  0
LINE
  8
0
 10
366.447
 11
351.397
 20
0
 21
0
  0
LINE
  8
0
 10
355.357
 11
355.357
 20
6.97
 21
10.099
  0
LINE
  8
0
 10
355.357
 11
358.486
 20
10.099
 21
10.099
  0
LINE
  8
0
 10
358.486
 11
358.486
 20
10.099
 21
6.97
  0
LINE
  8
0
 10
358.486
 11
355.357
 20
6.97
 21
6.97
  0
LINE
  8
0
 10
355.357
 11
355.357
 20
128.435
 21
131.565
  0
LINE
  8
0
 10
355.357
 11
358.486
 20
131.565
 21
131.565
  0
LINE
  8
0
 10
358.486
 11
358.486
 20
131.565
 21
128.435
  0
LINE
  8
0
 10
358.486
 11
355.357
 20
128.435
 21
128.435
  0
LINE
  8
0
 10
355.357
 11
355.357
 20
249.901
 21
253.03
  0
LINE
  8
0
 10
355.357
 11
358.486
 20
253.03
 21
253.03
  0
LINE
  8
0
 10
358.486
 11
358.486
 20
253.03
 21
249.901
  0
LINE
  8
0
 10
358.486
 11
355.357
 20
249.901
 21
249.901
  0
ENDSEC
  0
SECTION
  2
OBJECTS
  0
DICTIONARY
  0
ENDSEC
  0
EOF
