  0
SECTION
  2
BLOCKS
  0
ENDSEC
  0
SECTION
  2
ENTITIES
  0
LINE
  8
0
 10
-14.873
 11
-14.873
 20
16
 21
275.492
  0
LINE
  8
0
 10
-14.873
 11
0.127
 20
275.492
 21
275.492
  0
LINE
  8
0
 10
0.127
 11
0.127
 20
275.492
 21
16
  0
LINE
  8
0
 10
0.127
 11
-14.873
 20
16
 21
16
  0
LINE
  8
0
 10
0.254
 11
0.254
 20
-16.127
 21
-0.127
  0
LINE
  8
0
 10
0.254
 11
170.254
 20
-0.127
 21
-0.127
  0
LINE
  8
0
 10
170.254
 11
170.254
 20
-0.127
 21
-16.127
  0
LINE
  8
0
 10
170.254
 11
0.254
 20
-16.127
 21
-16.127
  0
LINE
  8
0
 10
0.254
 11
0.254
 20
0
 21
292
  0
LINE
  8
0
 10
0.254
 11
170.254
 20
292
 21
292
  0
LINE
  8
0
 10
170.254
 11
170.254
 20
292
 21
0
  0
LINE
  8
0
 10
170.254
 11
0.254
 20
0
 21
0
  0
LINE
  8
0
 10
0.254
 11
0.254
 20
292.127
 21
308.127
  0
LINE
  8
0
 10
0.254
 11
170.254
 20
308.127
 21
308.127
  0
LINE
  8
0
 10
170.254
 11
170.254
 20
308.127
 21
292.127
  0
LINE
  8
0
 10
170.254
 11
0.254
 20
292.127
 21
292.127
  0
LINE
  8
0
 10
3.262
 11
3.262
 20
19.008
 21
22.992
  0
LINE
  8
0
 10
3.262
 11
7.246
 20
22.992
 21
22.992
  0
LINE
  8
0
 10
7.246
 11
7.246
 20
22.992
 21
19.008
  0
LINE
  8
0
 10
7.246
 11
3.262
 20
19.008
 21
19.008
  0
LINE
  8
0
 10
3.262
 11
3.262
 20
24.008
 21
27.992
  0
LINE
  8
0
 10
3.262
 11
7.246
 20
27.992
 21
27.992
  0
LINE
  8
0
 10
7.246
 11
7.246
 20
27.992
 21
24.008
  0
LINE
  8
0
 10
7.246
 11
3.262
 20
24.008
 21
24.008
  0
LINE
  8
0
 10
3.262
 11
3.262
 20
29.008
 21
32.992
  0
LINE
  8
0
 10
3.262
 11
7.246
 20
32.992
 21
32.992
  0
LINE
  8
0
 10
7.246
 11
7.246
 20
32.992
 21
29.008
  0
LINE
  8
0
 10
7.246
 11
3.262
 20
29.008
 21
29.008
  0
LINE
  8
0
 10
3.262
 11
3.262
 20
34.008
 21
37.992
  0
LINE
  8
0
 10
3.262
 11
7.246
 20
37.992
 21
37.992
  0
LINE
  8
0
 10
7.246
 11
7.246
 20
37.992
 21
34.008
  0
LINE
  8
0
 10
7.246
 11
3.262
 20
34.008
 21
34.008
  0
LINE
  8
0
 10
3.262
 11
3.262
 20
39.008
 21
42.992
  0
LINE
  8
0
 10
3.262
 11
7.246
 20
42.992
 21
42.992
  0
LINE
  8
0
 10
7.246
 11
7.246
 20
42.992
 21
39.008
  0
LINE
  8
0
 10
7.246
 11
3.262
 20
39.008
 21
39.008
  0
LINE
  8
0
 10
3.262
 11
3.262
 20
44.008
 21
47.992
  0
LINE
  8
0
 10
3.262
 11
7.246
 20
47.992
 21
47.992
  0
LINE
  8
0
 10
7.246
 11
7.246
 20
47.992
 21
44.008
  0
LINE
  8
0
 10
7.246
 11
3.262
 20
44.008
 21
44.008
  0
LINE
  8
0
 10
3.262
 11
3.262
 20
49.008
 21
52.992
  0
LINE
  8
0
 10
3.262
 11
7.246
 20
52.992
 21
52.992
  0
LINE
  8
0
 10
7.246
 11
7.246
 20
52.992
 21
49.008
  0
LINE
  8
0
 10
7.246
 11
3.262
 20
49.008
 21
49.008
  0
LINE
  8
0
 10
3.262
 11
3.262
 20
54.008
 21
57.992
  0
LINE
  8
0
 10
3.262
 11
7.246
 20
57.992
 21
57.992
  0
LINE
  8
0
 10
7.246
 11
7.246
 20
57.992
 21
54.008
  0
LINE
  8
0
 10
7.246
 11
3.262
 20
54.008
 21
54.008
  0
LINE
  8
0
 10
3.262
 11
3.262
 20
59.008
 21
62.992
  0
LINE
  8
0
 10
3.262
 11
7.246
 20
62.992
 21
62.992
  0
LINE
  8
0
 10
7.246
 11
7.246
 20
62.992
 21
59.008
  0
LINE
  8
0
 10
7.246
 11
3.262
 20
59.008
 21
59.008
  0
LINE
  8
0
 10
3.262
 11
3.262
 20
64.008
 21
67.992
  0
LINE
  8
0
 10
3.262
 11
7.246
 20
67.992
 21
67.992
  0
LINE
  8
0
 10
7.246
 11
7.246
 20
67.992
 21
64.008
  0
LINE
  8
0
 10
7.246
 11
3.262
 20
64.008
 21
64.008
  0
LINE
  8
0
 10
3.262
 11
3.262
 20
69.008
 21
72.992
  0
LINE
  8
0
 10
3.262
 11
7.246
 20
72.992
 21
72.992
  0
LINE
  8
0
 10
7.246
 11
7.246
 20
72.992
 21
69.008
  0
LINE
  8
0
 10
7.246
 11
3.262
 20
69.008
 21
69.008
  0
LINE
  8
0
 10
3.262
 11
3.262
 20
74.008
 21
77.992
  0
LINE
  8
0
 10
3.262
 11
7.246
 20
77.992
 21
77.992
  0
LINE
  8
0
 10
7.246
 11
7.246
 20
77.992
 21
74.008
  0
LINE
  8
0
 10
7.246
 11
3.262
 20
74.008
 21
74.008
  0
LINE
  8
0
 10
3.262
 11
3.262
 20
79.008
 21
82.992
  0
LINE
  8
0
 10
3.262
 11
7.246
 20
82.992
 21
82.992
  0
LINE
  8
0
 10
7.246
 11
7.246
 20
82.992
 21
79.008
  0
LINE
  8
0
 10
7.246
 11
3.262
 20
79.008
 21
79.008
  0
LINE
  8
0
 10
3.262
 11
3.262
 20
84.008
 21
87.992
  0
LINE
  8
0
 10
3.262
 11
7.246
 20
87.992
 21
87.992
  0
LINE
  8
0
 10
7.246
 11
7.246
 20
87.992
 21
84.008
  0
LINE
  8
0
 10
7.246
 11
3.262
 20
84.008
 21
84.008
  0
LINE
  8
0
 10
3.262
 11
3.262
 20
89.008
 21
92.992
  0
LINE
  8
0
 10
3.262
 11
7.246
 20
92.992
 21
92.992
  0
LINE
  8
0
 10
7.246
 11
7.246
 20
92.992
 21
89.008
  0
LINE
  8
0
 10
7.246
 11
3.262
 20
89.008
 21
89.008
  0
LINE
  8
0
 10
3.262
 11
3.262
 20
94.008
 21
97.992
  0
LINE
  8
0
 10
3.262
 11
7.246
 20
97.992
 21
97.992
  0
LINE
  8
0
 10
7.246
 11
7.246
 20
97.992
 21
94.008
  0
LINE
  8
0
 10
7.246
 11
3.262
 20
94.008
 21
94.008
  0
LINE
  8
0
 10
3.262
 11
3.262
 20
99.008
 21
102.992
  0
LINE
  8
0
 10
3.262
 11
7.246
 20
102.992
 21
102.992
  0
LINE
  8
0
 10
7.246
 11
7.246
 20
102.992
 21
99.008
  0
LINE
  8
0
 10
7.246
 11
3.262
 20
99.008
 21
99.008
  0
LINE
  8
0
 10
3.262
 11
3.262
 20
104.008
 21
107.992
  0
LINE
  8
0
 10
3.262
 11
7.246
 20
107.992
 21
107.992
  0
LINE
  8
0
 10
7.246
 11
7.246
 20
107.992
 21
104.008
  0
LINE
  8
0
 10
7.246
 11
3.262
 20
104.008
 21
104.008
  0
LINE
  8
0
 10
3.262
 11
3.262
 20
109.008
 21
112.992
  0
LINE
  8
0
 10
3.262
 11
7.246
 20
112.992
 21
112.992
  0
LINE
  8
0
 10
7.246
 11
7.246
 20
112.992
 21
109.008
  0
LINE
  8
0
 10
7.246
 11
3.262
 20
109.008
 21
109.008
  0
LINE
  8
0
 10
3.262
 11
3.262
 20
114.008
 21
117.992
  0
LINE
  8
0
 10
3.262
 11
7.246
 20
117.992
 21
117.992
  0
LINE
  8
0
 10
7.246
 11
7.246
 20
117.992
 21
114.008
  0
LINE
  8
0
 10
7.246
 11
3.262
 20
114.008
 21
114.008
  0
LINE
  8
0
 10
3.262
 11
3.262
 20
119.008
 21
122.992
  0
LINE
  8
0
 10
3.262
 11
7.246
 20
122.992
 21
122.992
  0
LINE
  8
0
 10
7.246
 11
7.246
 20
122.992
 21
119.008
  0
LINE
  8
0
 10
7.246
 11
3.262
 20
119.008
 21
119.008
  0
LINE
  8
0
 10
3.262
 11
3.262
 20
124.008
 21
127.992
  0
LINE
  8
0
 10
3.262
 11
7.246
 20
127.992
 21
127.992
  0
LINE
  8
0
 10
7.246
 11
7.246
 20
127.992
 21
124.008
  0
LINE
  8
0
 10
7.246
 11
3.262
 20
124.008
 21
124.008
  0
LINE
  8
0
 10
3.262
 11
3.262
 20
129.008
 21
132.992
  0
LINE
  8
0
 10
3.262
 11
7.246
 20
132.992
 21
132.992
  0
LINE
  8
0
 10
7.246
 11
7.246
 20
132.992
 21
129.008
  0
LINE
  8
0
 10
7.246
 11
3.262
 20
129.008
 21
129.008
  0
LINE
  8
0
 10
3.262
 11
3.262
 20
134.008
 21
137.992
  0
LINE
  8
0
 10
3.262
 11
7.246
 20
137.992
 21
137.992
  0
LINE
  8
0
 10
7.246
 11
7.246
 20
137.992
 21
134.008
  0
LINE
  8
0
 10
7.246
 11
3.262
 20
134.008
 21
134.008
  0
LINE
  8
0
 10
3.262
 11
3.262
 20
139.008
 21
142.992
  0
LINE
  8
0
 10
3.262
 11
7.246
 20
142.992
 21
142.992
  0
LINE
  8
0
 10
7.246
 11
7.246
 20
142.992
 21
139.008
  0
LINE
  8
0
 10
7.246
 11
3.262
 20
139.008
 21
139.008
  0
LINE
  8
0
 10
3.262
 11
3.262
 20
144.008
 21
147.992
  0
LINE
  8
0
 10
3.262
 11
7.246
 20
147.992
 21
147.992
  0
LINE
  8
0
 10
7.246
 11
7.246
 20
147.992
 21
144.008
  0
LINE
  8
0
 10
7.246
 11
3.262
 20
144.008
 21
144.008
  0
LINE
  8
0
 10
3.262
 11
3.262
 20
149.008
 21
152.992
  0
LINE
  8
0
 10
3.262
 11
7.246
 20
152.992
 21
152.992
  0
LINE
  8
0
 10
7.246
 11
7.246
 20
152.992
 21
149.008
  0
LINE
  8
0
 10
7.246
 11
3.262
 20
149.008
 21
149.008
  0
LINE
  8
0
 10
3.262
 11
3.262
 20
154.008
 21
157.992
  0
LINE
  8
0
 10
3.262
 11
7.246
 20
157.992
 21
157.992
  0
LINE
  8
0
 10
7.246
 11
7.246
 20
157.992
 21
154.008
  0
LINE
  8
0
 10
7.246
 11
3.262
 20
154.008
 21
154.008
  0
LINE
  8
0
 10
3.262
 11
3.262
 20
159.008
 21
162.992
  0
LINE
  8
0
 10
3.262
 11
7.246
 20
162.992
 21
162.992
  0
LINE
  8
0
 10
7.246
 11
7.246
 20
162.992
 21
159.008
  0
LINE
  8
0
 10
7.246
 11
3.262
 20
159.008
 21
159.008
  0
LINE
  8
0
 10
3.262
 11
3.262
 20
164.008
 21
167.992
  0
LINE
  8
0
 10
3.262
 11
7.246
 20
167.992
 21
167.992
  0
LINE
  8
0
 10
7.246
 11
7.246
 20
167.992
 21
164.008
  0
LINE
  8
0
 10
7.246
 11
3.262
 20
164.008
 21
164.008
  0
LINE
  8
0
 10
3.262
 11
3.262
 20
169.008
 21
172.992
  0
LINE
  8
0
 10
3.262
 11
7.246
 20
172.992
 21
172.992
  0
LINE
  8
0
 10
7.246
 11
7.246
 20
172.992
 21
169.008
  0
LINE
  8
0
 10
7.246
 11
3.262
 20
169.008
 21
169.008
  0
LINE
  8
0
 10
3.262
 11
3.262
 20
174.008
 21
177.992
  0
LINE
  8
0
 10
3.262
 11
7.246
 20
177.992
 21
177.992
  0
LINE
  8
0
 10
7.246
 11
7.246
 20
177.992
 21
174.008
  0
LINE
  8
0
 10
7.246
 11
3.262
 20
174.008
 21
174.008
  0
LINE
  8
0
 10
3.262
 11
3.262
 20
179.008
 21
182.992
  0
LINE
  8
0
 10
3.262
 11
7.246
 20
182.992
 21
182.992
  0
LINE
  8
0
 10
7.246
 11
7.246
 20
182.992
 21
179.008
  0
LINE
  8
0
 10
7.246
 11
3.262
 20
179.008
 21
179.008
  0
LINE
  8
0
 10
3.262
 11
3.262
 20
184.008
 21
187.992
  0
LINE
  8
0
 10
3.262
 11
7.246
 20
187.992
 21
187.992
  0
LINE
  8
0
 10
7.246
 11
7.246
 20
187.992
 21
184.008
  0
LINE
  8
0
 10
7.246
 11
3.262
 20
184.008
 21
184.008
  0
LINE
  8
0
 10
3.262
 11
3.262
 20
189.008
 21
192.992
  0
LINE
  8
0
 10
3.262
 11
7.246
 20
192.992
 21
192.992
  0
LINE
  8
0
 10
7.246
 11
7.246
 20
192.992
 21
189.008
  0
LINE
  8
0
 10
7.246
 11
3.262
 20
189.008
 21
189.008
  0
LINE
  8
0
 10
3.262
 11
3.262
 20
194.008
 21
197.992
  0
LINE
  8
0
 10
3.262
 11
7.246
 20
197.992
 21
197.992
  0
LINE
  8
0
 10
7.246
 11
7.246
 20
197.992
 21
194.008
  0
LINE
  8
0
 10
7.246
 11
3.262
 20
194.008
 21
194.008
  0
LINE
  8
0
 10
3.262
 11
3.262
 20
199.008
 21
202.992
  0
LINE
  8
0
 10
3.262
 11
7.246
 20
202.992
 21
202.992
  0
LINE
  8
0
 10
7.246
 11
7.246
 20
202.992
 21
199.008
  0
LINE
  8
0
 10
7.246
 11
3.262
 20
199.008
 21
199.008
  0
LINE
  8
0
 10
3.262
 11
3.262
 20
204.008
 21
207.992
  0
LINE
  8
0
 10
3.262
 11
7.246
 20
207.992
 21
207.992
  0
LINE
  8
0
 10
7.246
 11
7.246
 20
207.992
 21
204.008
  0
LINE
  8
0
 10
7.246
 11
3.262
 20
204.008
 21
204.008
  0
LINE
  8
0
 10
3.262
 11
3.262
 20
209.008
 21
212.992
  0
LINE
  8
0
 10
3.262
 11
7.246
 20
212.992
 21
212.992
  0
LINE
  8
0
 10
7.246
 11
7.246
 20
212.992
 21
209.008
  0
LINE
  8
0
 10
7.246
 11
3.262
 20
209.008
 21
209.008
  0
LINE
  8
0
 10
3.262
 11
3.262
 20
214.008
 21
217.992
  0
LINE
  8
0
 10
3.262
 11
7.246
 20
217.992
 21
217.992
  0
LINE
  8
0
 10
7.246
 11
7.246
 20
217.992
 21
214.008
  0
LINE
  8
0
 10
7.246
 11
3.262
 20
214.008
 21
214.008
  0
LINE
  8
0
 10
3.262
 11
3.262
 20
219.008
 21
222.992
  0
LINE
  8
0
 10
3.262
 11
7.246
 20
222.992
 21
222.992
  0
LINE
  8
0
 10
7.246
 11
7.246
 20
222.992
 21
219.008
  0
LINE
  8
0
 10
7.246
 11
3.262
 20
219.008
 21
219.008
  0
LINE
  8
0
 10
3.262
 11
3.262
 20
224.008
 21
227.992
  0
LINE
  8
0
 10
3.262
 11
7.246
 20
227.992
 21
227.992
  0
LINE
  8
0
 10
7.246
 11
7.246
 20
227.992
 21
224.008
  0
LINE
  8
0
 10
7.246
 11
3.262
 20
224.008
 21
224.008
  0
LINE
  8
0
 10
3.262
 11
3.262
 20
229.008
 21
232.992
  0
LINE
  8
0
 10
3.262
 11
7.246
 20
232.992
 21
232.992
  0
LINE
  8
0
 10
7.246
 11
7.246
 20
232.992
 21
229.008
  0
LINE
  8
0
 10
7.246
 11
3.262
 20
229.008
 21
229.008
  0
LINE
  8
0
 10
3.262
 11
3.262
 20
234.008
 21
237.992
  0
LINE
  8
0
 10
3.262
 11
7.246
 20
237.992
 21
237.992
  0
LINE
  8
0
 10
7.246
 11
7.246
 20
237.992
 21
234.008
  0
LINE
  8
0
 10
7.246
 11
3.262
 20
234.008
 21
234.008
  0
LINE
  8
0
 10
3.262
 11
3.262
 20
239.008
 21
242.992
  0
LINE
  8
0
 10
3.262
 11
7.246
 20
242.992
 21
242.992
  0
LINE
  8
0
 10
7.246
 11
7.246
 20
242.992
 21
239.008
  0
LINE
  8
0
 10
7.246
 11
3.262
 20
239.008
 21
239.008
  0
LINE
  8
0
 10
3.262
 11
3.262
 20
244.008
 21
247.992
  0
LINE
  8
0
 10
3.262
 11
7.246
 20
247.992
 21
247.992
  0
LINE
  8
0
 10
7.246
 11
7.246
 20
247.992
 21
244.008
  0
LINE
  8
0
 10
7.246
 11
3.262
 20
244.008
 21
244.008
  0
LINE
  8
0
 10
3.262
 11
3.262
 20
249.008
 21
252.992
  0
LINE
  8
0
 10
3.262
 11
7.246
 20
252.992
 21
252.992
  0
LINE
  8
0
 10
7.246
 11
7.246
 20
252.992
 21
249.008
  0
LINE
  8
0
 10
7.246
 11
3.262
 20
249.008
 21
249.008
  0
LINE
  8
0
 10
3.262
 11
3.262
 20
254.008
 21
257.992
  0
LINE
  8
0
 10
3.262
 11
7.246
 20
257.992
 21
257.992
  0
LINE
  8
0
 10
7.246
 11
7.246
 20
257.992
 21
254.008
  0
LINE
  8
0
 10
7.246
 11
3.262
 20
254.008
 21
254.008
  0
LINE
  8
0
 10
3.262
 11
3.262
 20
259.008
 21
262.992
  0
LINE
  8
0
 10
3.262
 11
7.246
 20
262.992
 21
262.992
  0
LINE
  8
0
 10
7.246
 11
7.246
 20
262.992
 21
259.008
  0
LINE
  8
0
 10
7.246
 11
3.262
 20
259.008
 21
259.008
  0
LINE
  8
0
 10
3.262
 11
3.262
 20
264.008
 21
267.992
  0
LINE
  8
0
 10
3.262
 11
7.246
 20
267.992
 21
267.992
  0
LINE
  8
0
 10
7.246
 11
7.246
 20
267.992
 21
264.008
  0
LINE
  8
0
 10
7.246
 11
3.262
 20
264.008
 21
264.008
  0
LINE
  8
0
 10
3.262
 11
3.262
 20
269.008
 21
272.992
  0
LINE
  8
0
 10
3.262
 11
7.246
 20
272.992
 21
272.992
  0
LINE
  8
0
 10
7.246
 11
7.246
 20
272.992
 21
269.008
  0
LINE
  8
0
 10
7.246
 11
3.262
 20
269.008
 21
269.008
  0
LINE
  8
0
 10
3.262
 11
3.262
 20
274.008
 21
277.992
  0
LINE
  8
0
 10
3.262
 11
7.246
 20
277.992
 21
277.992
  0
LINE
  8
0
 10
7.246
 11
7.246
 20
277.992
 21
274.008
  0
LINE
  8
0
 10
7.246
 11
3.262
 20
274.008
 21
274.008
  0
LINE
  8
0
 10
8.262
 11
8.262
 20
21.508
 21
25.492
  0
LINE
  8
0
 10
8.262
 11
12.246
 20
25.492
 21
25.492
  0
LINE
  8
0
 10
12.246
 11
12.246
 20
25.492
 21
21.508
  0
LINE
  8
0
 10
12.246
 11
8.262
 20
21.508
 21
21.508
  0
LINE
  8
0
 10
8.262
 11
8.262
 20
26.508
 21
30.492
  0
LINE
  8
0
 10
8.262
 11
12.246
 20
30.492
 21
30.492
  0
LINE
  8
0
 10
12.246
 11
12.246
 20
30.492
 21
26.508
  0
LINE
  8
0
 10
12.246
 11
8.262
 20
26.508
 21
26.508
  0
LINE
  8
0
 10
8.262
 11
8.262
 20
31.508
 21
35.492
  0
LINE
  8
0
 10
8.262
 11
12.246
 20
35.492
 21
35.492
  0
LINE
  8
0
 10
12.246
 11
12.246
 20
35.492
 21
31.508
  0
LINE
  8
0
 10
12.246
 11
8.262
 20
31.508
 21
31.508
  0
LINE
  8
0
 10
8.262
 11
8.262
 20
36.508
 21
40.492
  0
LINE
  8
0
 10
8.262
 11
12.246
 20
40.492
 21
40.492
  0
LINE
  8
0
 10
12.246
 11
12.246
 20
40.492
 21
36.508
  0
LINE
  8
0
 10
12.246
 11
8.262
 20
36.508
 21
36.508
  0
LINE
  8
0
 10
8.262
 11
8.262
 20
41.508
 21
45.492
  0
LINE
  8
0
 10
8.262
 11
12.246
 20
45.492
 21
45.492
  0
LINE
  8
0
 10
12.246
 11
12.246
 20
45.492
 21
41.508
  0
LINE
  8
0
 10
12.246
 11
8.262
 20
41.508
 21
41.508
  0
LINE
  8
0
 10
8.262
 11
8.262
 20
46.508
 21
50.492
  0
LINE
  8
0
 10
8.262
 11
12.246
 20
50.492
 21
50.492
  0
LINE
  8
0
 10
12.246
 11
12.246
 20
50.492
 21
46.508
  0
LINE
  8
0
 10
12.246
 11
8.262
 20
46.508
 21
46.508
  0
LINE
  8
0
 10
8.262
 11
8.262
 20
51.508
 21
55.492
  0
LINE
  8
0
 10
8.262
 11
12.246
 20
55.492
 21
55.492
  0
LINE
  8
0
 10
12.246
 11
12.246
 20
55.492
 21
51.508
  0
LINE
  8
0
 10
12.246
 11
8.262
 20
51.508
 21
51.508
  0
LINE
  8
0
 10
8.262
 11
8.262
 20
56.508
 21
60.492
  0
LINE
  8
0
 10
8.262
 11
12.246
 20
60.492
 21
60.492
  0
LINE
  8
0
 10
12.246
 11
12.246
 20
60.492
 21
56.508
  0
LINE
  8
0
 10
12.246
 11
8.262
 20
56.508
 21
56.508
  0
LINE
  8
0
 10
8.262
 11
8.262
 20
61.508
 21
65.492
  0
LINE
  8
0
 10
8.262
 11
12.246
 20
65.492
 21
65.492
  0
LINE
  8
0
 10
12.246
 11
12.246
 20
65.492
 21
61.508
  0
LINE
  8
0
 10
12.246
 11
8.262
 20
61.508
 21
61.508
  0
LINE
  8
0
 10
8.262
 11
8.262
 20
66.508
 21
70.492
  0
LINE
  8
0
 10
8.262
 11
12.246
 20
70.492
 21
70.492
  0
LINE
  8
0
 10
12.246
 11
12.246
 20
70.492
 21
66.508
  0
LINE
  8
0
 10
12.246
 11
8.262
 20
66.508
 21
66.508
  0
LINE
  8
0
 10
8.262
 11
8.262
 20
71.508
 21
75.492
  0
LINE
  8
0
 10
8.262
 11
12.246
 20
75.492
 21
75.492
  0
LINE
  8
0
 10
12.246
 11
12.246
 20
75.492
 21
71.508
  0
LINE
  8
0
 10
12.246
 11
8.262
 20
71.508
 21
71.508
  0
LINE
  8
0
 10
8.262
 11
8.262
 20
76.508
 21
80.492
  0
LINE
  8
0
 10
8.262
 11
12.246
 20
80.492
 21
80.492
  0
LINE
  8
0
 10
12.246
 11
12.246
 20
80.492
 21
76.508
  0
LINE
  8
0
 10
12.246
 11
8.262
 20
76.508
 21
76.508
  0
LINE
  8
0
 10
8.262
 11
8.262
 20
81.508
 21
85.492
  0
LINE
  8
0
 10
8.262
 11
12.246
 20
85.492
 21
85.492
  0
LINE
  8
0
 10
12.246
 11
12.246
 20
85.492
 21
81.508
  0
LINE
  8
0
 10
12.246
 11
8.262
 20
81.508
 21
81.508
  0
LINE
  8
0
 10
8.262
 11
8.262
 20
86.508
 21
90.492
  0
LINE
  8
0
 10
8.262
 11
12.246
 20
90.492
 21
90.492
  0
LINE
  8
0
 10
12.246
 11
12.246
 20
90.492
 21
86.508
  0
LINE
  8
0
 10
12.246
 11
8.262
 20
86.508
 21
86.508
  0
LINE
  8
0
 10
8.262
 11
8.262
 20
91.508
 21
95.492
  0
LINE
  8
0
 10
8.262
 11
12.246
 20
95.492
 21
95.492
  0
LINE
  8
0
 10
12.246
 11
12.246
 20
95.492
 21
91.508
  0
LINE
  8
0
 10
12.246
 11
8.262
 20
91.508
 21
91.508
  0
LINE
  8
0
 10
8.262
 11
8.262
 20
96.508
 21
100.492
  0
LINE
  8
0
 10
8.262
 11
12.246
 20
100.492
 21
100.492
  0
LINE
  8
0
 10
12.246
 11
12.246
 20
100.492
 21
96.508
  0
LINE
  8
0
 10
12.246
 11
8.262
 20
96.508
 21
96.508
  0
LINE
  8
0
 10
8.262
 11
8.262
 20
101.508
 21
105.492
  0
LINE
  8
0
 10
8.262
 11
12.246
 20
105.492
 21
105.492
  0
LINE
  8
0
 10
12.246
 11
12.246
 20
105.492
 21
101.508
  0
LINE
  8
0
 10
12.246
 11
8.262
 20
101.508
 21
101.508
  0
LINE
  8
0
 10
8.262
 11
8.262
 20
106.508
 21
110.492
  0
LINE
  8
0
 10
8.262
 11
12.246
 20
110.492
 21
110.492
  0
LINE
  8
0
 10
12.246
 11
12.246
 20
110.492
 21
106.508
  0
LINE
  8
0
 10
12.246
 11
8.262
 20
106.508
 21
106.508
  0
LINE
  8
0
 10
8.262
 11
8.262
 20
111.508
 21
115.492
  0
LINE
  8
0
 10
8.262
 11
12.246
 20
115.492
 21
115.492
  0
LINE
  8
0
 10
12.246
 11
12.246
 20
115.492
 21
111.508
  0
LINE
  8
0
 10
12.246
 11
8.262
 20
111.508
 21
111.508
  0
LINE
  8
0
 10
8.262
 11
8.262
 20
116.508
 21
120.492
  0
LINE
  8
0
 10
8.262
 11
12.246
 20
120.492
 21
120.492
  0
LINE
  8
0
 10
12.246
 11
12.246
 20
120.492
 21
116.508
  0
LINE
  8
0
 10
12.246
 11
8.262
 20
116.508
 21
116.508
  0
LINE
  8
0
 10
8.262
 11
8.262
 20
121.508
 21
125.492
  0
LINE
  8
0
 10
8.262
 11
12.246
 20
125.492
 21
125.492
  0
LINE
  8
0
 10
12.246
 11
12.246
 20
125.492
 21
121.508
  0
LINE
  8
0
 10
12.246
 11
8.262
 20
121.508
 21
121.508
  0
LINE
  8
0
 10
8.262
 11
8.262
 20
126.508
 21
130.492
  0
LINE
  8
0
 10
8.262
 11
12.246
 20
130.492
 21
130.492
  0
LINE
  8
0
 10
12.246
 11
12.246
 20
130.492
 21
126.508
  0
LINE
  8
0
 10
12.246
 11
8.262
 20
126.508
 21
126.508
  0
LINE
  8
0
 10
8.262
 11
8.262
 20
131.508
 21
135.492
  0
LINE
  8
0
 10
8.262
 11
12.246
 20
135.492
 21
135.492
  0
LINE
  8
0
 10
12.246
 11
12.246
 20
135.492
 21
131.508
  0
LINE
  8
0
 10
12.246
 11
8.262
 20
131.508
 21
131.508
  0
LINE
  8
0
 10
8.262
 11
8.262
 20
136.508
 21
140.492
  0
LINE
  8
0
 10
8.262
 11
12.246
 20
140.492
 21
140.492
  0
LINE
  8
0
 10
12.246
 11
12.246
 20
140.492
 21
136.508
  0
LINE
  8
0
 10
12.246
 11
8.262
 20
136.508
 21
136.508
  0
LINE
  8
0
 10
8.262
 11
8.262
 20
141.508
 21
145.492
  0
LINE
  8
0
 10
8.262
 11
12.246
 20
145.492
 21
145.492
  0
LINE
  8
0
 10
12.246
 11
12.246
 20
145.492
 21
141.508
  0
LINE
  8
0
 10
12.246
 11
8.262
 20
141.508
 21
141.508
  0
LINE
  8
0
 10
8.262
 11
8.262
 20
146.508
 21
150.492
  0
LINE
  8
0
 10
8.262
 11
12.246
 20
150.492
 21
150.492
  0
LINE
  8
0
 10
12.246
 11
12.246
 20
150.492
 21
146.508
  0
LINE
  8
0
 10
12.246
 11
8.262
 20
146.508
 21
146.508
  0
LINE
  8
0
 10
8.262
 11
8.262
 20
151.508
 21
155.492
  0
LINE
  8
0
 10
8.262
 11
12.246
 20
155.492
 21
155.492
  0
LINE
  8
0
 10
12.246
 11
12.246
 20
155.492
 21
151.508
  0
LINE
  8
0
 10
12.246
 11
8.262
 20
151.508
 21
151.508
  0
LINE
  8
0
 10
8.262
 11
8.262
 20
156.508
 21
160.492
  0
LINE
  8
0
 10
8.262
 11
12.246
 20
160.492
 21
160.492
  0
LINE
  8
0
 10
12.246
 11
12.246
 20
160.492
 21
156.508
  0
LINE
  8
0
 10
12.246
 11
8.262
 20
156.508
 21
156.508
  0
LINE
  8
0
 10
8.262
 11
8.262
 20
161.508
 21
165.492
  0
LINE
  8
0
 10
8.262
 11
12.246
 20
165.492
 21
165.492
  0
LINE
  8
0
 10
12.246
 11
12.246
 20
165.492
 21
161.508
  0
LINE
  8
0
 10
12.246
 11
8.262
 20
161.508
 21
161.508
  0
LINE
  8
0
 10
8.262
 11
8.262
 20
166.508
 21
170.492
  0
LINE
  8
0
 10
8.262
 11
12.246
 20
170.492
 21
170.492
  0
LINE
  8
0
 10
12.246
 11
12.246
 20
170.492
 21
166.508
  0
LINE
  8
0
 10
12.246
 11
8.262
 20
166.508
 21
166.508
  0
LINE
  8
0
 10
8.262
 11
8.262
 20
171.508
 21
175.492
  0
LINE
  8
0
 10
8.262
 11
12.246
 20
175.492
 21
175.492
  0
LINE
  8
0
 10
12.246
 11
12.246
 20
175.492
 21
171.508
  0
LINE
  8
0
 10
12.246
 11
8.262
 20
171.508
 21
171.508
  0
LINE
  8
0
 10
8.262
 11
8.262
 20
176.508
 21
180.492
  0
LINE
  8
0
 10
8.262
 11
12.246
 20
180.492
 21
180.492
  0
LINE
  8
0
 10
12.246
 11
12.246
 20
180.492
 21
176.508
  0
LINE
  8
0
 10
12.246
 11
8.262
 20
176.508
 21
176.508
  0
LINE
  8
0
 10
8.262
 11
8.262
 20
181.508
 21
185.492
  0
LINE
  8
0
 10
8.262
 11
12.246
 20
185.492
 21
185.492
  0
LINE
  8
0
 10
12.246
 11
12.246
 20
185.492
 21
181.508
  0
LINE
  8
0
 10
12.246
 11
8.262
 20
181.508
 21
181.508
  0
LINE
  8
0
 10
8.262
 11
8.262
 20
186.508
 21
190.492
  0
LINE
  8
0
 10
8.262
 11
12.246
 20
190.492
 21
190.492
  0
LINE
  8
0
 10
12.246
 11
12.246
 20
190.492
 21
186.508
  0
LINE
  8
0
 10
12.246
 11
8.262
 20
186.508
 21
186.508
  0
LINE
  8
0
 10
8.262
 11
8.262
 20
191.508
 21
195.492
  0
LINE
  8
0
 10
8.262
 11
12.246
 20
195.492
 21
195.492
  0
LINE
  8
0
 10
12.246
 11
12.246
 20
195.492
 21
191.508
  0
LINE
  8
0
 10
12.246
 11
8.262
 20
191.508
 21
191.508
  0
LINE
  8
0
 10
8.262
 11
8.262
 20
196.508
 21
200.492
  0
LINE
  8
0
 10
8.262
 11
12.246
 20
200.492
 21
200.492
  0
LINE
  8
0
 10
12.246
 11
12.246
 20
200.492
 21
196.508
  0
LINE
  8
0
 10
12.246
 11
8.262
 20
196.508
 21
196.508
  0
LINE
  8
0
 10
8.262
 11
8.262
 20
201.508
 21
205.492
  0
LINE
  8
0
 10
8.262
 11
12.246
 20
205.492
 21
205.492
  0
LINE
  8
0
 10
12.246
 11
12.246
 20
205.492
 21
201.508
  0
LINE
  8
0
 10
12.246
 11
8.262
 20
201.508
 21
201.508
  0
LINE
  8
0
 10
8.262
 11
8.262
 20
206.508
 21
210.492
  0
LINE
  8
0
 10
8.262
 11
12.246
 20
210.492
 21
210.492
  0
LINE
  8
0
 10
12.246
 11
12.246
 20
210.492
 21
206.508
  0
LINE
  8
0
 10
12.246
 11
8.262
 20
206.508
 21
206.508
  0
LINE
  8
0
 10
8.262
 11
8.262
 20
211.508
 21
215.492
  0
LINE
  8
0
 10
8.262
 11
12.246
 20
215.492
 21
215.492
  0
LINE
  8
0
 10
12.246
 11
12.246
 20
215.492
 21
211.508
  0
LINE
  8
0
 10
12.246
 11
8.262
 20
211.508
 21
211.508
  0
LINE
  8
0
 10
8.262
 11
8.262
 20
216.508
 21
220.492
  0
LINE
  8
0
 10
8.262
 11
12.246
 20
220.492
 21
220.492
  0
LINE
  8
0
 10
12.246
 11
12.246
 20
220.492
 21
216.508
  0
LINE
  8
0
 10
12.246
 11
8.262
 20
216.508
 21
216.508
  0
LINE
  8
0
 10
8.262
 11
8.262
 20
221.508
 21
225.492
  0
LINE
  8
0
 10
8.262
 11
12.246
 20
225.492
 21
225.492
  0
LINE
  8
0
 10
12.246
 11
12.246
 20
225.492
 21
221.508
  0
LINE
  8
0
 10
12.246
 11
8.262
 20
221.508
 21
221.508
  0
LINE
  8
0
 10
8.262
 11
8.262
 20
226.508
 21
230.492
  0
LINE
  8
0
 10
8.262
 11
12.246
 20
230.492
 21
230.492
  0
LINE
  8
0
 10
12.246
 11
12.246
 20
230.492
 21
226.508
  0
LINE
  8
0
 10
12.246
 11
8.262
 20
226.508
 21
226.508
  0
LINE
  8
0
 10
8.262
 11
8.262
 20
231.508
 21
235.492
  0
LINE
  8
0
 10
8.262
 11
12.246
 20
235.492
 21
235.492
  0
LINE
  8
0
 10
12.246
 11
12.246
 20
235.492
 21
231.508
  0
LINE
  8
0
 10
12.246
 11
8.262
 20
231.508
 21
231.508
  0
LINE
  8
0
 10
8.262
 11
8.262
 20
236.508
 21
240.492
  0
LINE
  8
0
 10
8.262
 11
12.246
 20
240.492
 21
240.492
  0
LINE
  8
0
 10
12.246
 11
12.246
 20
240.492
 21
236.508
  0
LINE
  8
0
 10
12.246
 11
8.262
 20
236.508
 21
236.508
  0
LINE
  8
0
 10
8.262
 11
8.262
 20
241.508
 21
245.492
  0
LINE
  8
0
 10
8.262
 11
12.246
 20
245.492
 21
245.492
  0
LINE
  8
0
 10
12.246
 11
12.246
 20
245.492
 21
241.508
  0
LINE
  8
0
 10
12.246
 11
8.262
 20
241.508
 21
241.508
  0
LINE
  8
0
 10
8.262
 11
8.262
 20
246.508
 21
250.492
  0
LINE
  8
0
 10
8.262
 11
12.246
 20
250.492
 21
250.492
  0
LINE
  8
0
 10
12.246
 11
12.246
 20
250.492
 21
246.508
  0
LINE
  8
0
 10
12.246
 11
8.262
 20
246.508
 21
246.508
  0
LINE
  8
0
 10
8.262
 11
8.262
 20
251.508
 21
255.492
  0
LINE
  8
0
 10
8.262
 11
12.246
 20
255.492
 21
255.492
  0
LINE
  8
0
 10
12.246
 11
12.246
 20
255.492
 21
251.508
  0
LINE
  8
0
 10
12.246
 11
8.262
 20
251.508
 21
251.508
  0
LINE
  8
0
 10
8.262
 11
8.262
 20
256.508
 21
260.492
  0
LINE
  8
0
 10
8.262
 11
12.246
 20
260.492
 21
260.492
  0
LINE
  8
0
 10
12.246
 11
12.246
 20
260.492
 21
256.508
  0
LINE
  8
0
 10
12.246
 11
8.262
 20
256.508
 21
256.508
  0
LINE
  8
0
 10
8.262
 11
8.262
 20
261.508
 21
265.492
  0
LINE
  8
0
 10
8.262
 11
12.246
 20
265.492
 21
265.492
  0
LINE
  8
0
 10
12.246
 11
12.246
 20
265.492
 21
261.508
  0
LINE
  8
0
 10
12.246
 11
8.262
 20
261.508
 21
261.508
  0
LINE
  8
0
 10
8.262
 11
8.262
 20
266.508
 21
270.492
  0
LINE
  8
0
 10
8.262
 11
12.246
 20
270.492
 21
270.492
  0
LINE
  8
0
 10
12.246
 11
12.246
 20
270.492
 21
266.508
  0
LINE
  8
0
 10
12.246
 11
8.262
 20
266.508
 21
266.508
  0
LINE
  8
0
 10
8.262
 11
8.262
 20
271.508
 21
275.492
  0
LINE
  8
0
 10
8.262
 11
12.246
 20
275.492
 21
275.492
  0
LINE
  8
0
 10
12.246
 11
12.246
 20
275.492
 21
271.508
  0
LINE
  8
0
 10
12.246
 11
8.262
 20
271.508
 21
271.508
  0
LINE
  8
0
 10
8.262
 11
8.262
 20
276.508
 21
280.492
  0
LINE
  8
0
 10
8.262
 11
12.246
 20
280.492
 21
280.492
  0
LINE
  8
0
 10
12.246
 11
12.246
 20
280.492
 21
276.508
  0
LINE
  8
0
 10
12.246
 11
8.262
 20
276.508
 21
276.508
  0
LINE
  8
0
 10
21.254
 11
21.254
 20
23.5
 21
26.5
  0
LINE
  8
0
 10
21.254
 11
24.254
 20
26.5
 21
26.5
  0
LINE
  8
0
 10
24.254
 11
24.254
 20
26.5
 21
23.5
  0
LINE
  8
0
 10
24.254
 11
21.254
 20
23.5
 21
23.5
  0
LINE
  8
0
 10
21.254
 11
21.254
 20
144.5
 21
147.5
  0
LINE
  8
0
 10
21.254
 11
24.254
 20
147.5
 21
147.5
  0
LINE
  8
0
 10
24.254
 11
24.254
 20
147.5
 21
144.5
  0
LINE
  8
0
 10
24.254
 11
21.254
 20
144.5
 21
144.5
  0
LINE
  8
0
 10
21.254
 11
21.254
 20
265.5
 21
268.5
  0
LINE
  8
0
 10
21.254
 11
24.254
 20
268.5
 21
268.5
  0
LINE
  8
0
 10
24.254
 11
24.254
 20
268.5
 21
265.5
  0
LINE
  8
0
 10
24.254
 11
21.254
 20
265.5
 21
265.5
  0
LINE
  8
0
 10
30.254
 11
30.254
 20
16
 21
276
  0
LINE
  8
0
 10
30.254
 11
55.397
 20
276
 21
276
  0
LINE
  8
0
 10
55.397
 11
55.397
 20
276
 21
16
  0
LINE
  8
0
 10
55.397
 11
30.254
 20
16
 21
16
  0
LINE
  8
0
 10
30.381
 11
30.381
 20
29.016
 21
262.984
  0
LINE
  8
0
 10
30.381
 11
42.381
 20
262.984
 21
262.984
  0
LINE
  8
0
 10
42.381
 11
42.381
 20
262.984
 21
29.016
  0
LINE
  8
0
 10
42.381
 11
30.381
 20
29.016
 21
29.016
  0
LINE
  8
0
 10
31.27
 11
31.27
 20
16.127
 21
28.127
  0
LINE
  8
0
 10
31.27
 11
54.381
 20
28.127
 21
28.127
  0
LINE
  8
0
 10
54.381
 11
54.381
 20
28.127
 21
16.127
  0
LINE
  8
0
 10
54.381
 11
31.27
 20
16.127
 21
16.127
  0
LINE
  8
0
 10
31.27
 11
31.27
 20
263.873
 21
275.873
  0
LINE
  8
0
 10
31.27
 11
54.381
 20
275.873
 21
275.873
  0
LINE
  8
0
 10
54.381
 11
54.381
 20
275.873
 21
263.873
  0
LINE
  8
0
 10
54.381
 11
31.27
 20
263.873
 21
263.873
  0
LINE
  8
0
 10
43.27
 11
43.27
 20
29.016
 21
262.984
  0
LINE
  8
0
 10
43.27
 11
55.27
 20
262.984
 21
262.984
  0
LINE
  8
0
 10
55.27
 11
55.27
 20
262.984
 21
29.016
  0
LINE
  8
0
 10
55.27
 11
43.27
 20
29.016
 21
29.016
  0
LINE
  8
0
 10
61.397
 11
61.397
 20
23.5
 21
26.5
  0
LINE
  8
0
 10
61.397
 11
64.397
 20
26.5
 21
26.5
  0
LINE
  8
0
 10
64.397
 11
64.397
 20
26.5
 21
23.5
  0
LINE
  8
0
 10
64.397
 11
61.397
 20
23.5
 21
23.5
  0
LINE
  8
0
 10
61.397
 11
61.397
 20
144.5
 21
147.5
  0
LINE
  8
0
 10
61.397
 11
64.397
 20
147.5
 21
147.5
  0
LINE
  8
0
 10
64.397
 11
64.397
 20
147.5
 21
144.5
  0
LINE
  8
0
 10
64.397
 11
61.397
 20
144.5
 21
144.5
  0
LINE
  8
0
 10
61.397
 11
61.397
 20
265.5
 21
268.5
  0
LINE
  8
0
 10
61.397
 11
64.397
 20
268.5
 21
268.5
  0
LINE
  8
0
 10
64.397
 11
64.397
 20
268.5
 21
265.5
  0
LINE
  8
0
 10
64.397
 11
61.397
 20
265.5
 21
265.5
  0
LINE
  8
0
 10
78.825
 11
78.825
 20
48
 21
68
  0
LINE
  8
0
 10
78.825
 11
98.825
 20
68
 21
68
  0
LINE
  8
0
 10
98.825
 11
98.825
 20
68
 21
48
  0
LINE
  8
0
 10
98.825
 11
78.825
 20
48
 21
48
  0
LINE
  8
0
 10
78.952
 11
78.952
 20
49.016
 21
66.984
  0
LINE
  8
0
 10
78.952
 11
88.444
 20
66.984
 21
66.984
  0
LINE
  8
0
 10
88.444
 11
88.444
 20
66.984
 21
49.016
  0
LINE
  8
0
 10
88.444
 11
78.952
 20
49.016
 21
49.016
  0
LINE
  8
0
 10
89.333
 11
89.333
 20
48.127
 21
57.619
  0
LINE
  8
0
 10
89.333
 11
97.809
 20
57.619
 21
57.619
  0
LINE
  8
0
 10
97.809
 11
97.809
 20
57.619
 21
48.127
  0
LINE
  8
0
 10
97.809
 11
89.333
 20
48.127
 21
48.127
  0
LINE
  8
0
 10
89.842
 11
89.842
 20
59.905
 21
67.873
  0
LINE
  8
0
 10
89.842
 11
97.81
 20
67.873
 21
67.873
  0
LINE
  8
0
 10
97.81
 11
97.81
 20
67.873
 21
59.905
  0
LINE
  8
0
 10
97.81
 11
89.842
 20
59.905
 21
59.905
  0
LINE
  8
0
 10
91.818
 11
91.818
 20
51.627
 21
54.627
  0
LINE
  8
0
 10
91.818
 11
94.818
 20
54.627
 21
54.627
  0
LINE
  8
0
 10
94.818
 11
94.818
 20
54.627
 21
51.627
  0
LINE
  8
0
 10
94.818
 11
91.818
 20
51.627
 21
51.627
  0
LINE
  8
0
 10
92.325
 11
92.325
 20
62.389
 21
65.389
  0
LINE
  8
0
 10
92.325
 11
95.325
 20
65.389
 21
65.389
  0
LINE
  8
0
 10
95.325
 11
95.325
 20
65.389
 21
62.389
  0
LINE
  8
0
 10
95.325
 11
92.325
 20
62.389
 21
62.389
  0
LINE
  8
0
 10
106.746
 11
106.746
 20
68
 21
100.032
  0
LINE
  8
0
 10
106.746
 11
121.762
 20
100.032
 21
100.032
  0
LINE
  8
0
 10
121.762
 11
121.762
 20
100.032
 21
68
  0
LINE
  8
0
 10
121.762
 11
106.746
 20
68
 21
68
  0
LINE
  8
0
 10
106.746
 11
106.746
 20
172
 21
204.032
  0
LINE
  8
0
 10
106.746
 11
121.762
 20
204.032
 21
204.032
  0
LINE
  8
0
 10
121.762
 11
121.762
 20
204.032
 21
172
  0
LINE
  8
0
 10
121.762
 11
106.746
 20
172
 21
172
  0
LINE
  8
0
 10
106.873
 11
106.873
 20
69.016
 21
99.016
  0
LINE
  8
0
 10
106.873
 11
113.365
 20
99.016
 21
99.016
  0
LINE
  8
0
 10
113.365
 11
113.365
 20
99.016
 21
69.016
  0
LINE
  8
0
 10
113.365
 11
106.873
 20
69.016
 21
69.016
  0
LINE
  8
0
 10
106.873
 11
106.873
 20
173.016
 21
203.016
  0
LINE
  8
0
 10
106.873
 11
113.365
 20
203.016
 21
203.016
  0
LINE
  8
0
 10
113.365
 11
113.365
 20
203.016
 21
173.016
  0
LINE
  8
0
 10
113.365
 11
106.873
 20
173.016
 21
173.016
  0
LINE
  8
0
 10
115.143
 11
115.143
 20
69.016
 21
99.016
  0
LINE
  8
0
 10
115.143
 11
121.635
 20
99.016
 21
99.016
  0
LINE
  8
0
 10
121.635
 11
121.635
 20
99.016
 21
69.016
  0
LINE
  8
0
 10
121.635
 11
115.143
 20
69.016
 21
69.016
  0
LINE
  8
0
 10
115.143
 11
115.143
 20
173.016
 21
203.016
  0
LINE
  8
0
 10
115.143
 11
121.635
 20
203.016
 21
203.016
  0
LINE
  8
0
 10
121.635
 11
121.635
 20
203.016
 21
173.016
  0
LINE
  8
0
 10
121.635
 11
115.143
 20
173.016
 21
173.016
  0
LINE
  8
0
 10
170.381
 11
170.381
 20
16
 21
275.492
  0
LINE
  8
0
 10
170.381
 11
184.523
 20
275.492
 21
275.492
  0
LINE
  8
0
 10
184.523
 11
184.523
 20
275.492
 21
16
  0
LINE
  8
0
 10
184.523
 11
170.381
 20
16
 21
16
  0
LINE
  8
0
 10
219
 11
219
 20
0
 21
260
  0
LINE
  8
0
 10
219
 11
234
 20
260
 21
260
  0
LINE
  8
0
 10
234
 11
234
 20
260
 21
0
  0
LINE
  8
0
 10
234
 11
219
 20
0
 21
0
  0
LINE
  8
0
 10
225.75
 11
225.75
 20
8.25
 21
9.75
  0
LINE
  8
0
 10
225.75
 11
227.25
 20
9.75
 21
9.75
  0
LINE
  8
0
 10
227.25
 11
227.25
 20
9.75
 21
8.25
  0
LINE
  8
0
 10
227.25
 11
225.75
 20
8.25
 21
8.25
  0
LINE
  8
0
 10
225.75
 11
225.75
 20
129.25
 21
130.75
  0
LINE
  8
0
 10
225.75
 11
227.25
 20
130.75
 21
130.75
  0
LINE
  8
0
 10
227.25
 11
227.25
 20
130.75
 21
129.25
  0
LINE
  8
0
 10
227.25
 11
225.75
 20
129.25
 21
129.25
  0
LINE
  8
0
 10
225.75
 11
225.75
 20
250.25
 21
251.75
  0
LINE
  8
0
 10
225.75
 11
227.25
 20
251.75
 21
251.75
  0
LINE
  8
0
 10
227.25
 11
227.25
 20
251.75
 21
250.25
  0
LINE
  8
0
 10
227.25
 11
225.75
 20
250.25
 21
250.25
  0
LINE
  8
0
 10
234.127
 11
234.127
 20
0
 21
260
  0
LINE
  8
0
 10
234.127
 11
242.787
 20
260
 21
260
  0
LINE
  8
0
 10
242.787
 11
242.787
 20
260
 21
0
  0
LINE
  8
0
 10
242.787
 11
234.127
 20
0
 21
0
  0
LINE
  8
0
 10
242.914
 11
242.914
 20
0
 21
260
  0
LINE
  8
0
 10
242.914
 11
257.803
 20
260
 21
260
  0
LINE
  8
0
 10
257.803
 11
257.803
 20
260
 21
0
  0
LINE
  8
0
 10
257.803
 11
242.914
 20
0
 21
0
  0
LINE
  8
0
 10
257.93
 11
257.93
 20
0
 21
260
  0
LINE
  8
0
 10
257.93
 11
266.591
 20
260
 21
260
  0
LINE
  8
0
 10
266.591
 11
266.591
 20
260
 21
0
  0
LINE
  8
0
 10
266.591
 11
257.93
 20
0
 21
0
  0
LINE
  8
0
 10
266.718
 11
266.718
 20
0
 21
260
  0
LINE
  8
0
 10
266.718
 11
281.718
 20
260
 21
260
  0
LINE
  8
0
 10
281.718
 11
281.718
 20
260
 21
0
  0
LINE
  8
0
 10
281.718
 11
266.718
 20
0
 21
0
  0
LINE
  8
0
 10
273.468
 11
273.468
 20
8.25
 21
9.75
  0
LINE
  8
0
 10
273.468
 11
274.968
 20
9.75
 21
9.75
  0
LINE
  8
0
 10
274.968
 11
274.968
 20
9.75
 21
8.25
  0
LINE
  8
0
 10
274.968
 11
273.468
 20
8.25
 21
8.25
  0
LINE
  8
0
 10
273.468
 11
273.468
 20
129.25
 21
130.75
  0
LINE
  8
0
 10
273.468
 11
274.968
 20
130.75
 21
130.75
  0
LINE
  8
0
 10
274.968
 11
274.968
 20
130.75
 21
129.25
  0
LINE
  8
0
 10
274.968
 11
273.468
 20
129.25
 21
129.25
  0
LINE
  8
0
 10
273.468
 11
273.468
 20
250.25
 21
251.75
  0
LINE
  8
0
 10
273.468
 11
274.968
 20
251.75
 21
251.75
  0
LINE
  8
0
 10
274.968
 11
274.968
 20
251.75
 21
250.25
  0
LINE
  8
0
 10
274.968
 11
273.468
 20
250.25
 21
250.25
  0
LINE
  8
0
 10
295.572
 11
295.572
 20
0
 21
260
  0
LINE
  8
0
 10
295.572
 11
305.572
 20
260
 21
260
  0
LINE
  8
0
 10
305.572
 11
305.572
 20
260
 21
0
  0
LINE
  8
0
 10
305.572
 11
295.572
 20
0
 21
0
  0
LINE
  8
0
 10
301.572
 11
301.572
 20
7.5
 21
10.5
  0
LINE
  8
0
 10
301.572
 11
304.572
 20
10.5
 21
10.5
  0
LINE
  8
0
 10
304.572
 11
304.572
 20
10.5
 21
7.5
  0
LINE
  8
0
 10
304.572
 11
301.572
 20
7.5
 21
7.5
  0
LINE
  8
0
 10
301.572
 11
301.572
 20
128.5
 21
131.5
  0
LINE
  8
0
 10
301.572
 11
304.572
 20
131.5
 21
131.5
  0
LINE
  8
0
 10
304.572
 11
304.572
 20
131.5
 21
128.5
  0
LINE
  8
0
 10
304.572
 11
301.572
 20
128.5
 21
128.5
  0
LINE
  8
0
 10
301.572
 11
301.572
 20
249.5
 21
252.5
  0
LINE
  8
0
 10
301.572
 11
304.572
 20
252.5
 21
252.5
  0
LINE
  8
0
 10
304.572
 11
304.572
 20
252.5
 21
249.5
  0
LINE
  8
0
 10
304.572
 11
301.572
 20
249.5
 21
249.5
  0
LINE
  8
0
 10
305.699
 11
305.699
 20
0
 21
260
  0
LINE
  8
0
 10
305.699
 11
318.909
 20
260
 21
260
  0
LINE
  8
0
 10
318.909
 11
318.909
 20
260
 21
0
  0
LINE
  8
0
 10
318.909
 11
305.699
 20
0
 21
0
  0
LINE
  8
0
 10
319.036
 11
319.036
 20
0
 21
260
  0
LINE
  8
0
 10
319.036
 11
338.671
 20
260
 21
260
  0
LINE
  8
0
 10
338.671
 11
338.671
 20
260
 21
0
  0
LINE
  8
0
 10
338.671
 11
319.036
 20
0
 21
0
  0
LINE
  8
0
 10
338.798
 11
338.798
 20
0
 21
260
  0
LINE
  8
0
 10
338.798
 11
352.009
 20
260
 21
260
  0
LINE
  8
0
 10
352.009
 11
352.009
 20
260
 21
0
  0
LINE
  8
0
 10
352.009
 11
338.798
 20
0
 21
0
  0
LINE
  8
0
 10
352.136
 11
352.136
 20
0
 21
260
  0
LINE
  8
0
 10
352.136
 11
362.136
 20
260
 21
260
  0
LINE
  8
0
 10
362.136
 11
362.136
 20
260
 21
0
  0
LINE
  8
0
 10
362.136
 11
352.136
 20
0
 21
0
  0
LINE
  8
0
 10
353.136
 11
353.136
 20
7.5
 21
10.5
  0
LINE
  8
0
 10
353.136
 11
356.136
 20
10.5
 21
10.5
  0
LINE
  8
0
 10
356.136
 11
356.136
 20
10.5
 21
7.5
  0
LINE
  8
0
 10
356.136
 11
353.136
 20
7.5
 21
7.5
  0
LINE
  8
0
 10
353.136
 11
353.136
 20
128.5
 21
131.5
  0
LINE
  8
0
 10
353.136
 11
356.136
 20
131.5
 21
131.5
  0
LINE
  8
0
 10
356.136
 11
356.136
 20
131.5
 21
128.5
  0
LINE
  8
0
 10
356.136
 11
353.136
 20
128.5
 21
128.5
  0
LINE
  8
0
 10
353.136
 11
353.136
 20
249.5
 21
252.5
  0
LINE
  8
0
 10
353.136
 11
356.136
 20
252.5
 21
252.5
  0
LINE
  8
0
 10
356.136
 11
356.136
 20
252.5
 21
249.5
  0
LINE
  8
0
 10
356.136
 11
353.136
 20
249.5
 21
249.5
  0
ENDSEC
  0
SECTION
  2
OBJECTS
  0
DICTIONARY
  0
ENDSEC
  0
EOF
